<?xml version="1.0" encoding="utf-8"?>
<!-- Generator: Adobe Illustrator 24.2.1, SVG Export Plug-In . SVG Version: 6.00 Build 0)  -->
<svg version="1.1" id="Layer_1" xmlns="http://www.w3.org/2000/svg" xmlns:xlink="http://www.w3.org/1999/xlink" x="0px" y="0px"
	 viewBox="0 0 56.6 63" style="enable-background:new 0 0 56.6 63;" xml:space="preserve">
<style type="text/css">
	.st0{fill:#E28617;}
	.st1{fill:#FFFFFF;}
	.st2{fill:#3B4D72;}
</style>
<g id="Layer_1-2">
	<path class="st0" d="M44.5,45.9l-6.3-2.1H18.5l-6.3,2.1c-6.5,2.2-10.9,9-10.9,15.9h54.2C55.4,54.9,51,48.1,44.5,45.9z"/>
	<path class="st1" d="M40.6,19.9l-2.9-0.4c-4.5-0.6-8.6-2.7-11.8-5.9c-3.1,0-6,1.5-7.9,3.9L16,20c0.1,2.9,0.4,5.8,0.8,8.6
		c0.5,3.5,1,6.7,4.4,9.7l-0.1,0.1l-2.7,5.4c1.6,4.9,4,9.5,7.1,13.7l2.7,4.3l2.7-4.3c1.2-1.6,2.3-3.3,3.3-5.1
		c1.5-2.7,2.8-5.6,3.8-8.5l-2.7-5.4l-0.1-0.1c2.1-1.8,3.5-4.3,4-7.1c0.2-1.4,0.3-1.9,0.4-2.6C40.2,25.7,40.5,22.8,40.6,19.9
		L40.6,19.9z"/>
	<path class="st1" d="M40.6,19.9l-2.9-0.4c-4.5-0.6-8.6-2.7-11.8-5.9c-3.1,0-6,1.5-7.9,3.9L16,20c0.1,2.9,0.4,5.8,0.8,8.6
		c0.5,3.5,1,6.7,4.4,9.7l-0.1,0.1c-0.9,1.8,7.3,7.2,7.3,7.2l7-7.2l-0.1-0.1c2.1-1.8,3.5-4.3,4-7.1c0.2-1.4,0.3-1.9,0.4-2.6
		C40.2,25.7,40.5,22.8,40.6,19.9L40.6,19.9z"/>
	<path class="st0" d="M45.5,18.5v7.8c0,1.4-1.1,2.5-2.5,2.5h-3l-0.3,0c0.4-2.9,0.7-5.8,0.8-8.8v-1.4H45.5L45.5,18.5z"/>
	<path class="st2" d="M29.4,6.2c6.2,0,11.2,5.1,11.2,11.3c0,0.6,0,1.6,0,2.5l-2.9-0.4c-4.5-0.6-8.6-2.7-11.8-5.9
		c-3.1,0-6,1.5-7.9,3.9L16,20c0-0.9-0.1-1.9-0.1-2.6c0-6.2,5-11.2,11.2-11.2C27.2,6.2,29.4,6.2,29.4,6.2z"/>
	<path class="st0" d="M28.3,31.1c1.4,0,2.5,1.1,2.5,2.5s-1.1,2.5-2.5,2.5h-2.5c-1.4,0-2.5-1.1-2.5-2.5s1.1-2.5,2.5-2.5H28.3z"/>
	<path class="st0" d="M16.8,28.7h-3.3c-1.4,0-2.5-1.1-2.5-2.5v-7.8H16c0,0.5,0,1,0,1.6C16.1,22.9,16.4,25.8,16.8,28.7z"/>
	<path class="st2" d="M1.2,63h54.2c0.7,0,1.2-0.6,1.2-1.2c0-7.6-4.9-14.8-11.7-17l-5.8-2l-2.1-4.2c1.9-2,3.2-4.4,3.7-7.1l0.3-1.6
		h2.2c2,0,3.7-1.7,3.7-3.7v-7.7C47,8.3,38.9-0.2,28.7-0.4s-18.7,7.8-18.9,18c0,0.3,0,0.6,0,0.9v7.8c0,1.6,1,3,2.5,3.5v1.4
		c0,2,1.7,3.7,3.7,3.7h1.1c0.5,1.1,1.2,2.2,2.1,3.2l0.5,0.6l-2.1,4.2l-5.9,2C4.9,47,0,54.2,0,61.8C0,62.5,0.6,63,1.2,63z M28.3,59.4
		l-1.7-2.7l-0.1-0.1c-1-1.3-1.9-2.7-2.8-4.2l4.4-4.6l4.6,4.6C32,53.9,31,55.3,30,56.7C30,56.8,30.1,56.7,28.3,59.4L28.3,59.4z
		 M34.1,50.3l-4.2-4.1l5.3-5.6l1.7,3.3C36.1,46.1,35.1,48.2,34.1,50.3L34.1,50.3z M28.2,44.3L25.8,42c1.5,0.3,3.1,0.4,4.6,0.1
		L28.2,44.3z M21.3,41l5.2,5.2l-3.9,4.1c-1.1-2.1-2-4.2-2.8-6.4L21.3,41z M54.1,60.6H30.5l1.5-2.4c1.2-1.6,2.4-3.4,3.4-5.1l0,0l0,0
		c1.4-2.4,2.5-4.9,3.5-7.5l5.2,1.7C49.6,48.9,53.6,54.5,54.1,60.6z M13.5,27.5c-0.7,0-1.2-0.6-1.2-1.2l0,0v-6.5h2.5
		c0,0.1,0,0.3,0,0.4l0,0c0.1,2.5,0.3,5,0.6,7.4L13.5,27.5z M39.4,18.5L39.4,18.5l-1.5-0.2c-4.2-0.6-8.1-2.6-11.1-5.6
		c-0.2-0.2-0.5-0.4-0.9-0.4c-3.3,0-6.4,1.5-8.6,4c0.5-5.1,4.8-9,9.9-9h2.2c5.5,0,10,4.5,10,10C39.4,17.8,39.4,18.1,39.4,18.5
		L39.4,18.5z M44.3,26.2c0,0.7-0.6,1.2-1.2,1.2h-1.9c0.3-2.4,0.5-5,0.6-7.5v-0.2h2.5V26.2z M28.3,2.5c8.4,0,15.4,6.4,16,14.8h-2.5
		c-0.1-6.8-5.6-12.3-12.4-12.3h-2.2c-6.8,0-12.3,5.5-12.4,12.3h-2.4C13,8.9,20,2.5,28.3,2.5L28.3,2.5z M14.8,31.1v-1.2h1l0.3,1.6
		c0,0.3,0.1,0.6,0.2,0.9H16C15.3,32.4,14.8,31.8,14.8,31.1z M22.4,34.8c0.5,1.5,1.9,2.5,3.5,2.5h2.5c2,0,3.7-1.7,3.7-3.7
		c0-2-1.7-3.7-3.7-3.7h-2.5c-1.6,0-3,1-3.5,2.5h-3.6c-0.8-4-1.3-8-1.5-12l1.7-2.2c1.5-2,3.9-3.3,6.4-3.4c3.3,3.2,7.6,5.2,12.1,5.9
		l1.8,0.3c-0.1,2.6-0.4,5.1-0.7,7.5l0,0c-0.1,0.8-0.2,1.3-0.4,2.6c-0.6,4-3.5,7.3-7.4,8.4c-4.3,1.1-8.7-0.8-10.9-4.7L22.4,34.8z
		 M24.6,33.6c0-0.7,0.6-1.2,1.2-1.2h2.5c0.7,0,1.2,0.5,1.2,1.2c0,0.7-0.5,1.2-1.2,1.2c0,0,0,0,0,0h-2.5
		C25.2,34.8,24.6,34.3,24.6,33.6z M12.5,47.1l5.2-1.7c0.9,2.6,2.1,5.2,3.5,7.6l0,0l0,0c1,1.8,2.1,3.5,3.4,5.1l1.5,2.4H2.5
		C3,54.5,7.1,48.9,12.5,47.1z"/>
</g>
</svg>
