<svg id="Ñëîé_1" data-name="Ñëîé 1" xmlns="http://www.w3.org/2000/svg" xmlns:xlink="http://www.w3.org/1999/xlink" viewBox="0 0 364.35 321.34"><defs><style>.cls-1{opacity:0.4;}.cls-2{fill:#ff8c00;}.cls-3,.cls-4,.cls-5{fill:#fff;}.cls-4{opacity:0.2;}.cls-29,.cls-5{opacity:0.5;}.cls-6{fill:#e8b87e;}.cls-7{fill:#ffdeb6;}.cls-8{fill:url(#Áåçûìÿííûé_ãðàäèåíò_3);}.cls-9{fill:url(#Áåçûìÿííûé_ãðàäèåíò_9);}.cls-10{fill:url(#Áåçûìÿííûé_ãðàäèåíò_4);}.cls-11{fill:url(#Áåçûìÿííûé_ãðàäèåíò_3-2);}.cls-12{fill:url(#Áåçûìÿííûé_ãðàäèåíò_9-2);}.cls-13{fill:url(#Áåçûìÿííûé_ãðàäèåíò_4-2);}.cls-14{fill:url(#Áåçûìÿííûé_ãðàäèåíò_3-3);}.cls-15{fill:url(#Áåçûìÿííûé_ãðàäèåíò_9-3);}.cls-16{fill:url(#Áåçûìÿííûé_ãðàäèåíò_4-3);}.cls-17{fill:url(#Áåçûìÿííûé_ãðàäèåíò_3-4);}.cls-18{fill:url(#Áåçûìÿííûé_ãðàäèåíò_9-4);}.cls-19{fill:url(#Áåçûìÿííûé_ãðàäèåíò_4-4);}.cls-20{fill:url(#radial-gradient);}.cls-21{fill:url(#linear-gradient);}.cls-22{fill:#cc9758;}.cls-23{fill:url(#Áåçûìÿííûé_ãðàäèåíò_441);}.cls-24,.cls-29{fill:#774c18;}.cls-25{fill:#a87639;}.cls-26{fill:#06033e;opacity:0.3;}.cls-27{fill:#d4ecff;}.cls-28{fill:#ff2c9c;}.cls-30{fill:#396caa;}.cls-31{fill:url(#Áåçûìÿííûé_ãðàäèåíò_13);}.cls-32{fill:url(#Áåçûìÿííûé_ãðàäèåíò_45);}.cls-33{fill:url(#Áåçûìÿííûé_ãðàäèåíò_13-2);}.cls-34{fill:url(#Áåçûìÿííûé_ãðàäèåíò_45-2);}.cls-35{fill:url(#Áåçûìÿííûé_ãðàäèåíò_13-3);}.cls-36{fill:url(#Áåçûìÿííûé_ãðàäèåíò_45-3);}</style><radialGradient id="Áåçûìÿííûé_ãðàäèåíò_3" cx="53.57" cy="260.88" r="33.67" gradientUnits="userSpaceOnUse"><stop offset="0" stop-color="#274f89"/><stop offset="1" stop-color="#173d7a"/></radialGradient><linearGradient id="Áåçûìÿííûé_ãðàäèåíò_9" x1="33.11" y1="248.66" x2="92.69" y2="248.66" gradientUnits="userSpaceOnUse"><stop offset="0" stop-color="#d4ecff"/><stop offset="0.24" stop-color="#d0eafe"/><stop offset="0.46" stop-color="#c5e2f9"/><stop offset="0.67" stop-color="#b2d6f2"/><stop offset="0.88" stop-color="#98c4e7"/><stop offset="1" stop-color="#86b8e0"/></linearGradient><radialGradient id="Áåçûìÿííûé_ãðàäèåíò_4" cx="5.16" cy="226.04" r="60.86" gradientUnits="userSpaceOnUse"><stop offset="0" stop-color="#699dd1"/><stop offset="0.27" stop-color="#6396cc"/><stop offset="0.64" stop-color="#5184bd"/><stop offset="1" stop-color="#396caa"/></radialGradient><radialGradient id="Áåçûìÿííûé_ãðàäèåíò_3-2" cx="306.51" cy="120.39" r="33.67" xlink:href="#Áåçûìÿííûé_ãðàäèåíò_3"/><linearGradient id="Áåçûìÿííûé_ãðàäèåíò_9-2" x1="286.05" y1="108.17" x2="345.63" y2="108.17" xlink:href="#Áåçûìÿííûé_ãðàäèåíò_9"/><radialGradient id="Áåçûìÿííûé_ãðàäèåíò_4-2" cx="258.1" cy="85.54" r="60.86" xlink:href="#Áåçûìÿííûé_ãðàäèåíò_4"/><radialGradient id="Áåçûìÿííûé_ãðàäèåíò_3-3" cx="306.51" cy="260.88" r="33.67" xlink:href="#Áåçûìÿííûé_ãðàäèåíò_3"/><linearGradient id="Áåçûìÿííûé_ãðàäèåíò_9-3" x1="286.05" y1="248.66" x2="345.63" y2="248.66" xlink:href="#Áåçûìÿííûé_ãðàäèåíò_9"/><radialGradient id="Áåçûìÿííûé_ãðàäèåíò_4-3" cx="258.1" cy="226.04" r="60.86" xlink:href="#Áåçûìÿííûé_ãðàäèåíò_4"/><radialGradient id="Áåçûìÿííûé_ãðàäèåíò_3-4" cx="53.57" cy="120.39" r="33.67" xlink:href="#Áåçûìÿííûé_ãðàäèåíò_3"/><linearGradient id="Áåçûìÿííûé_ãðàäèåíò_9-4" x1="33.11" y1="108.17" x2="92.69" y2="108.17" xlink:href="#Áåçûìÿííûé_ãðàäèåíò_9"/><radialGradient id="Áåçûìÿííûé_ãðàäèåíò_4-4" cx="5.16" cy="85.54" r="60.86" xlink:href="#Áåçûìÿííûé_ãðàäèåíò_4"/><radialGradient id="radial-gradient" cx="162.69" cy="139.94" r="121.15" gradientUnits="userSpaceOnUse"><stop offset="0" stop-color="#aa7739"/><stop offset="1" stop-color="#895d27"/></radialGradient><linearGradient id="linear-gradient" x1="124.58" y1="54" x2="237.55" y2="122.82" gradientUnits="userSpaceOnUse"><stop offset="0" stop-color="#ffecd4"/><stop offset="0.24" stop-color="#feead0"/><stop offset="0.46" stop-color="#f9e2c5"/><stop offset="0.67" stop-color="#f2d6b2"/><stop offset="0.88" stop-color="#e7c498"/><stop offset="1" stop-color="#e0b886"/></linearGradient><linearGradient id="Áåçûìÿííûé_ãðàäèåíò_441" x1="-178.12" y1="1303.92" x2="-111.73" y2="1288.88" gradientTransform="matrix(0.87, 0.5, 0, 1.15, 275.56, -1262.92)" gradientUnits="userSpaceOnUse"><stop offset="0" stop-color="#3919bb"/><stop offset="1" stop-color="#6507fa"/></linearGradient><radialGradient id="Áåçûìÿííûé_ãðàäèåíò_13" cx="149.2" cy="283.64" r="43.62" xlink:href="#Áåçûìÿííûé_ãðàäèåíò_4"/><linearGradient id="Áåçûìÿííûé_ãðàäèåíò_45" x1="157.43" y1="269.65" x2="225.76" y2="310.39" gradientUnits="userSpaceOnUse"><stop offset="0" stop-color="#d4ecff"/><stop offset="0.2" stop-color="#d0eafe"/><stop offset="0.39" stop-color="#c5e2f9"/><stop offset="0.57" stop-color="#b2d6f2"/><stop offset="0.74" stop-color="#98c4e7"/><stop offset="0.84" stop-color="#86b8e0"/></linearGradient><radialGradient id="Áåçûìÿííûé_ãðàäèåíò_13-2" cx="275.67" cy="195.72" r="43.62" xlink:href="#Áåçûìÿííûé_ãðàäèåíò_4"/><linearGradient id="Áåçûìÿííûé_ãðàäèåíò_45-2" x1="283.9" y1="181.73" x2="352.24" y2="222.47" xlink:href="#Áåçûìÿííûé_ãðàäèåíò_45"/><radialGradient id="Áåçûìÿííûé_ãðàäèåíò_13-3" cx="22.73" cy="195.72" r="43.62" xlink:href="#Áåçûìÿííûé_ãðàäèåíò_4"/><linearGradient id="Áåçûìÿííûé_ãðàäèåíò_45-3" x1="30.96" y1="181.73" x2="99.29" y2="222.47" xlink:href="#Áåçûìÿííûé_ãðàäèåíò_45"/></defs><g class="cls-1"><path class="cls-2" d="M337.66,112.75,306.38,94.69l31.28-18.06.28.16,31,17.9ZM308.59,94.69l29.07,16.78,29.07-16.78L337.66,77.91Z" transform="translate(-4.61 -23.94)"/><path class="cls-2" d="M277.31,112.75,246,94.69l31.29-18.06,31.28,18.06ZM248.24,94.69l29.07,16.78,29.07-16.78L277.31,77.91Z" transform="translate(-4.61 -23.94)"/><path class="cls-2" d="M307.49,130.17l-.28-.16-31-17.9,31.28-18.06,31.29,18.06Zm-29.07-18.06,29.07,16.79,29.06-16.79L307.48,95.33Z" transform="translate(-4.61 -23.94)"/><path class="cls-2" d="M337.66,147.6l-.27-.16-31-17.9,31.28-18.07.28.16,31,17.91Zm-29.07-18.06,29.07,16.78,29.07-16.78-29.07-16.79Z" transform="translate(-4.61 -23.94)"/><path class="cls-3" d="M217,112.75l-.27-.16-31-17.9L217,76.63l.28.16,31,17.9ZM187.88,94.69,217,111.47,246,94.69,217,77.91Z" transform="translate(-4.61 -23.94)"/><path class="cls-2" d="M247.13,130.17l-31.28-18.06,31.28-18.06,31.29,18.06Zm-29.07-18.06,29.07,16.79,29.07-16.79L247.13,95.33Z" transform="translate(-4.61 -23.94)"/><path class="cls-2" d="M277.31,147.6l-.28-.16-31-17.9,31.29-18.07.27.16,31,17.91Zm-29.07-18.06,29.07,16.78,29.07-16.78-29.07-16.79Z" transform="translate(-4.61 -23.94)"/><path class="cls-3" d="M307.49,165l-.28-.16-31-17.9,31.29-18.06.27.16,31,17.9ZM278.42,147l29.07,16.78L336.56,147l-29.07-16.79Z" transform="translate(-4.61 -23.94)"/><path class="cls-2" d="M337.66,182.44l-.27-.16-31-17.9,31.28-18.06L369,164.38Zm-29.07-18.06,29.07,16.78,29.07-16.78L337.66,147.6Z" transform="translate(-4.61 -23.94)"/><path class="cls-3" d="M156.6,112.75l-.28-.16-31-17.9L156.6,76.63l.28.16,31,17.9ZM127.53,94.69l29.07,16.78,29.07-16.78L156.6,77.91Z" transform="translate(-4.61 -23.94)"/><path class="cls-3" d="M186.78,130.17l-.28-.16-31-17.9,31.29-18.06.27.16,31,17.9Zm-29.07-18.06,29.07,16.78,29.07-16.78L186.78,95.33Z" transform="translate(-4.61 -23.94)"/><path class="cls-3" d="M217,147.6l-.28-.16-31-17.91L217,111.47l31.29,18.07Zm-29.08-18.07L217,146.32,246,129.54,217,112.75Z" transform="translate(-4.61 -23.94)"/><path class="cls-3" d="M247.13,165,215.85,147l31.28-18.06.28.16,31,17.9ZM218.06,147l29.07,16.78L276.2,147l-29.07-16.79Z" transform="translate(-4.61 -23.94)"/><path class="cls-2" d="M277.31,182.44l-.28-.16-31-17.9,31.29-18.06.28.16,31,17.9Zm-29.07-18.06,29.07,16.78,29.07-16.78L277.31,147.6Z" transform="translate(-4.61 -23.94)"/><path class="cls-2" d="M307.49,199.87l-.28-.16-31-17.91,31.29-18.06.27.16,31,17.9ZM278.42,181.8l29.07,16.79,29.07-16.79L307.49,165Z" transform="translate(-4.61 -23.94)"/><path class="cls-2" d="M337.67,217.29l-.28-.16-31-17.9,31.28-18.07.28.16,31,17.91Zm-29.08-18.06L337.67,216l29.06-16.78-29.07-16.79Z" transform="translate(-4.61 -23.94)"/><path class="cls-2" d="M96.25,112.75l-.28-.16L65,94.69,96.24,76.63l.28.16,31,17.9ZM67.17,94.69l29.08,16.78,29.06-16.78L96.24,77.91Z" transform="translate(-4.61 -23.94)"/><path class="cls-2" d="M126.42,130.17,95.14,112.11l31.28-18.06.28.16,31,17.9ZM97.35,112.11l29.07,16.78,29.07-16.78L126.42,95.33Z" transform="translate(-4.61 -23.94)"/><path class="cls-3" d="M156.6,147.6l-.28-.16-31-17.91,31.28-18.06.28.16,31,17.9Zm-29.07-18.07,29.07,16.79,29.07-16.79L156.6,112.75Z" transform="translate(-4.61 -23.94)"/><path class="cls-3" d="M186.78,165l-.28-.16-31-17.9,31.29-18.07.27.16,31,17.91ZM157.71,147l29.07,16.78L215.85,147l-29.07-16.79Z" transform="translate(-4.61 -23.94)"/><path class="cls-3" d="M217,182.44l-31.29-18.06L217,146.32l31.28,18.06Zm-29.07-18.06L217,181.16,246,164.38,217,147.6Z" transform="translate(-4.61 -23.94)"/><path class="cls-3" d="M247.13,199.87l-.27-.16-31-17.91,31.28-18.06.28.16,31,17.9ZM218.06,181.8l29.07,16.79L276.2,181.8,247.13,165Z" transform="translate(-4.61 -23.94)"/><path class="cls-2" d="M277.31,217.29,246,199.23l31.28-18.07.28.16,31,17.91Zm-29.07-18.06L277.31,216l29.07-16.78-29.07-16.79Z" transform="translate(-4.61 -23.94)"/><path class="cls-3" d="M307.49,234.71l-.28-.16-31-17.9,31.29-18.06.27.16,31,17.9Zm-29.07-18.06,29.07,16.78,29.07-16.78-29.07-16.78Z" transform="translate(-4.61 -23.94)"/><path class="cls-2" d="M337.67,252.13l-.28-.16-31-17.9L337.67,216l.27.16,31,17.9ZM308.6,234.07l29.07,16.79,29.07-16.79-29.07-16.78Z" transform="translate(-4.61 -23.94)"/><path class="cls-2" d="M35.89,112.75l-.28-.16-31-17.9L35.89,76.63l.28.16,31,17.9ZM6.82,94.69l29.07,16.78L65,94.69,35.89,77.9Z" transform="translate(-4.61 -23.94)"/><path class="cls-2" d="M66.07,130.17l-.28-.16-31-17.9L66.07,94.05l.27.16,31,17.9ZM37,112.11l29.07,16.78,29.07-16.78L66.07,95.33Z" transform="translate(-4.61 -23.94)"/><path class="cls-2" d="M96.25,147.6l-.28-.16L65,129.53l31.29-18.06,31.28,18.06ZM67.18,129.53l29.07,16.79,29.07-16.79L96.25,112.75Z" transform="translate(-4.61 -23.94)"/><path class="cls-3" d="M126.42,165,95.14,147l31.28-18.07.28.16,31,17.91ZM97.35,147l29.07,16.78L155.49,147l-29.07-16.79Z" transform="translate(-4.61 -23.94)"/><path class="cls-3" d="M156.6,182.44l-.27-.16-31-17.9,31.28-18.06.28.16,31,17.9Zm-29.07-18.06,29.07,16.78,29.07-16.78L156.6,147.6Z" transform="translate(-4.61 -23.94)"/><path class="cls-3" d="M186.78,199.87,155.49,181.8l31.29-18.06,31.28,18.06ZM157.71,181.8l29.07,16.79,29.07-16.79L186.78,165Z" transform="translate(-4.61 -23.94)"/><path class="cls-3" d="M217,217.29l-.28-.16-31-17.9L217,181.16l.27.16,31,17.91Zm-29.07-18.06L217,216,246,199.23,217,182.44Z" transform="translate(-4.61 -23.94)"/><path class="cls-2" d="M247.13,234.71l-.27-.16-31-17.9,31.28-18.06,31.29,18.06Zm-29.07-18.06,29.07,16.78,29.07-16.78-29.07-16.78Z" transform="translate(-4.61 -23.94)"/><path class="cls-2" d="M277.31,252.13,246,234.07,277.31,216l.28.16,31,17.9Zm-29.07-18.06,29.07,16.79,29.07-16.79-29.07-16.78Z" transform="translate(-4.61 -23.94)"/><path class="cls-2" d="M307.49,269.56l-.28-.16-31-17.9,31.29-18.07.27.16,31,17.91ZM278.42,251.5l29.07,16.78,29.07-16.78-29.07-16.79Z" transform="translate(-4.61 -23.94)"/><path class="cls-2" d="M337.67,287l-.28-.16-31-17.9,31.29-18.06.27.16,31,17.9ZM308.6,268.92l29.07,16.78,29.07-16.78-29.07-16.79Z" transform="translate(-4.61 -23.94)"/><path class="cls-2" d="M35.89,147.6l-.27-.16-31-17.91,31.28-18.06.28.16,31,17.9ZM6.82,129.53l29.07,16.79L65,129.53,35.89,112.75Z" transform="translate(-4.61 -23.94)"/><path class="cls-2" d="M66.07,165l-.28-.16-31-17.9,31.29-18.07.27.16,31,17.91ZM37,147l29.07,16.78L95.14,147,66.07,130.17Z" transform="translate(-4.61 -23.94)"/><path class="cls-2" d="M96.25,182.44l-.28-.16-31-17.9,31.29-18.06,31.28,18.06ZM67.18,164.38l29.07,16.78,29.07-16.78L96.25,147.6Z" transform="translate(-4.61 -23.94)"/><path class="cls-2" d="M126.42,199.86l-.27-.16-31-17.9,31.28-18.06.28.16,31,17.9ZM97.35,181.8l29.07,16.79,29.07-16.79L126.42,165Z" transform="translate(-4.61 -23.94)"/><path class="cls-3" d="M156.6,217.29l-31.28-18.07,31.28-18.06,31.29,18.07Zm-29.07-18.07L156.6,216l29.07-16.78L156.6,182.44Z" transform="translate(-4.61 -23.94)"/><path class="cls-3" d="M186.78,234.71,155.5,216.65l31.28-18.06.27.16,31,17.9Zm-29.07-18.06,29.07,16.78,29.07-16.78-29.07-16.78Z" transform="translate(-4.61 -23.94)"/><path class="cls-2" d="M217,252.13l-.28-.16-31-17.9L217,216l.27.16,31,17.9Zm-29.07-18.06L217,250.85,246,234.07,217,217.29Z" transform="translate(-4.61 -23.94)"/><path class="cls-2" d="M247.13,269.56l-.27-.16-31-17.91,31.28-18.06,31.29,18.07Zm-29.07-18.07,29.07,16.79L276.2,251.5l-29.07-16.79Z" transform="translate(-4.61 -23.94)"/><path class="cls-2" d="M277.31,287l-.27-.16-31-17.9,31.28-18.06.28.16,31,17.9Zm-29.07-18.06,29.07,16.78,29.07-16.78-29.07-16.79Z" transform="translate(-4.61 -23.94)"/><path class="cls-3" d="M307.49,304.4l-31.28-18.06,31.28-18.06.28.16,31,17.9Zm-29.07-18.06,29.07,16.78,29.07-16.78-29.07-16.78Z" transform="translate(-4.61 -23.94)"/><path class="cls-2" d="M337.67,321.83l-.28-.16-31-17.91,31.29-18.06.27.16,31,17.9ZM308.6,303.76l29.07,16.79,29.07-16.79L337.67,287Z" transform="translate(-4.61 -23.94)"/><path class="cls-2" d="M35.89,182.44,4.61,164.38l31.28-18.06.28.16,31,17.9ZM6.82,164.38l29.07,16.78L65,164.38,35.89,147.6Z" transform="translate(-4.61 -23.94)"/><path class="cls-2" d="M66.07,199.86l-.28-.16-31-17.9,31.28-18.06.28.16,31,17.9ZM37,181.8l29.07,16.79L95.14,181.8,66.07,165Z" transform="translate(-4.61 -23.94)"/><path class="cls-2" d="M96.25,217.29l-.28-.16L65,199.22l31.29-18.06.27.16,31,17.9ZM67.18,199.22,96.25,216l29.07-16.79L96.25,182.44Z" transform="translate(-4.61 -23.94)"/><path class="cls-2" d="M126.43,234.71l-.28-.16-31-17.9,31.28-18.06,31.29,18.06ZM97.36,216.65l29.07,16.78,29.07-16.78-29.08-16.79Z" transform="translate(-4.61 -23.94)"/><path class="cls-3" d="M156.6,252.13l-31.28-18.06L156.6,216l31.29,18.06Zm-29.07-18.06,29.07,16.78,29.07-16.78L156.6,217.29Z" transform="translate(-4.61 -23.94)"/><path class="cls-3" d="M186.78,269.56,155.5,251.49l31.28-18.06.28.16,31,17.9Zm-29.07-18.07,29.07,16.79,29.07-16.79-29.07-16.78Z" transform="translate(-4.61 -23.94)"/><path class="cls-2" d="M217,287l-.28-.16-31-17.9L217,250.85l.27.16,31,17.91Zm-29.07-18.06L217,285.7,246,268.92,217,252.13Z" transform="translate(-4.61 -23.94)"/><path class="cls-2" d="M247.14,304.4l-.28-.16-31-17.9,31.28-18.06.28.16,31,17.9Zm-29.07-18.06,29.07,16.78,29.07-16.78-29.08-16.78Z" transform="translate(-4.61 -23.94)"/><path class="cls-2" d="M277.31,321.83l-.27-.16-31-17.91,31.28-18.06,31.29,18.06Zm-29.07-18.07,29.07,16.79,29.07-16.79L277.31,287Z" transform="translate(-4.61 -23.94)"/><path class="cls-2" d="M35.89,217.29,4.61,199.22l31.28-18.06.28.16,31,17.9ZM6.82,199.22,35.89,216,65,199.22,35.89,182.44Z" transform="translate(-4.61 -23.94)"/><path class="cls-3" d="M66.07,234.71l-.27-.16-31-17.9,31.28-18.06.28.16,31,17.9ZM37,216.65l29.07,16.78,29.07-16.78L66.07,199.86Z" transform="translate(-4.61 -23.94)"/><path class="cls-2" d="M96.25,252.13,96,252l-31-17.9L96.25,216l.27.16,31,17.9ZM67.18,234.07l29.07,16.78,29.07-16.78L96.25,217.29Z" transform="translate(-4.61 -23.94)"/><path class="cls-2" d="M126.43,269.56,95.14,251.49l31.29-18.06,31.28,18.06ZM97.36,251.49l29.07,16.79,29.07-16.79-29.07-16.78Z" transform="translate(-4.61 -23.94)"/><path class="cls-2" d="M156.6,287l-.27-.16-31-17.9,31.28-18.07,31.29,18.07Zm-29.07-18.06L156.6,285.7l29.07-16.78L156.6,252.13Z" transform="translate(-4.61 -23.94)"/><path class="cls-3" d="M186.78,304.4,155.5,286.34l31.28-18.06.28.16,31,17.9Zm-29.07-18.06,29.07,16.78,29.07-16.78-29.07-16.78Z" transform="translate(-4.61 -23.94)"/><path class="cls-2" d="M217,321.83l-.28-.16-31-17.91L217,285.7l.27.16,31,17.9Zm-29.07-18.07L217,320.55,246,303.76,217,287Z" transform="translate(-4.61 -23.94)"/><path class="cls-2" d="M35.89,252.13l-.27-.16-31-17.9L35.89,216l.28.16,31,17.9ZM6.82,234.07l29.07,16.78L65,234.07,35.89,217.29Z" transform="translate(-4.61 -23.94)"/><path class="cls-2" d="M66.07,269.56,34.79,251.49l31.28-18.06.28.16,31,17.9ZM37,251.49l29.07,16.79,29.07-16.79L66.07,234.71Z" transform="translate(-4.61 -23.94)"/><path class="cls-2" d="M96.25,287l-.28-.16-31-17.9,31.29-18.07,31.28,18.07ZM67.18,268.92,96.25,285.7l29.07-16.78L96.25,252.13Z" transform="translate(-4.61 -23.94)"/><path class="cls-2" d="M126.43,304.4,95.14,286.34l31.29-18.06.27.16,31,17.9ZM97.36,286.34l29.07,16.78,29.07-16.78-29.07-16.78Z" transform="translate(-4.61 -23.94)"/><path class="cls-2" d="M156.6,321.82l-.27-.16-31-17.9L156.6,285.7l31.29,18.06Zm-29.07-18.06,29.07,16.78,29.07-16.78L156.6,287Z" transform="translate(-4.61 -23.94)"/><path class="cls-2" d="M35.9,287l-.28-.16-31-17.9,31.28-18.07,31.29,18.07ZM6.83,268.92,35.9,285.7,65,268.92,35.89,252.13Z" transform="translate(-4.61 -23.94)"/><path class="cls-3" d="M66.07,304.4l-.27-.16-31-17.9,31.28-18.06.28.16,31,17.9ZM37,286.34l29.07,16.78,29.07-16.78L66.07,269.56Z" transform="translate(-4.61 -23.94)"/><path class="cls-2" d="M96.25,321.82,65,303.76,96.25,285.7l31.28,18.06ZM67.18,303.76l29.07,16.78,29.07-16.78L96.25,287Z" transform="translate(-4.61 -23.94)"/><path class="cls-2" d="M35.9,321.82l-.28-.16-31-17.9L35.9,285.7l.27.16,31,17.9ZM6.83,303.76,35.9,320.54,65,303.76,35.9,287Z" transform="translate(-4.61 -23.94)"/></g><path class="cls-3" d="M245.09,275.42a6.45,6.45,0,0,1-2.92,5.06c-1.61.93-2.92.18-2.92-1.69a6.45,6.45,0,0,1,2.92-5.05C243.78,272.81,245.09,273.56,245.09,275.42Z" transform="translate(-4.61 -23.94)"/><path class="cls-3" d="M254.55,270a6.47,6.47,0,0,1-2.92,5.06c-1.61.93-2.92.17-2.92-1.69a6.45,6.45,0,0,1,2.92-5.05C253.24,267.35,254.55,268.1,254.55,270Z" transform="translate(-4.61 -23.94)"/><path class="cls-3" d="M264,264.5a6.42,6.42,0,0,1-2.92,5.05c-1.61.94-2.92.18-2.92-1.68a6.47,6.47,0,0,1,2.92-5.06C262.71,261.88,264,262.64,264,264.5Z" transform="translate(-4.61 -23.94)"/><path class="cls-3" d="M273.47,259a6.42,6.42,0,0,1-2.92,5c-1.61.93-2.91.18-2.91-1.68a6.46,6.46,0,0,1,2.91-5.06C272.17,256.42,273.47,257.17,273.47,259Z" transform="translate(-4.61 -23.94)"/><path class="cls-3" d="M108.81,327.6a6.47,6.47,0,0,1-2.92,5.06c-1.61.93-2.92.18-2.92-1.69a6.45,6.45,0,0,1,2.92-5.05C107.5,325,108.81,325.74,108.81,327.6Z" transform="translate(-4.61 -23.94)"/><path class="cls-3" d="M116.86,323a6.43,6.43,0,0,1-2.92,5.06c-1.61.93-2.91.18-2.91-1.69a6.44,6.44,0,0,1,2.91-5.05C115.56,320.34,116.86,321.09,116.86,323Z" transform="translate(-4.61 -23.94)"/><path class="cls-3" d="M108.81,318.31a6.45,6.45,0,0,1-2.92,5.05c-1.61.93-2.92.18-2.92-1.68a6.45,6.45,0,0,1,2.92-5.06C107.5,315.69,108.81,316.44,108.81,318.31Z" transform="translate(-4.61 -23.94)"/><path class="cls-3" d="M116.86,313.66a6.42,6.42,0,0,1-2.92,5c-1.61.93-2.91.18-2.91-1.68a6.46,6.46,0,0,1,2.91-5.06C115.56,311,116.86,311.79,116.86,313.66Z" transform="translate(-4.61 -23.94)"/><polygon class="cls-3" points="77.16 70.66 71.32 74.03 71.32 67.29 77.16 63.92 77.16 70.66"/><polygon class="cls-3" points="85.26 65.92 79.42 69.29 79.42 62.55 85.26 59.18 85.26 65.92"/><polygon class="cls-3" points="77.21 79.4 71.37 82.77 71.37 76.03 77.21 72.66 77.21 79.4"/><polygon class="cls-3" points="85.26 74.75 79.42 78.13 79.42 71.38 85.26 68.01 85.26 74.75"/><path class="cls-4" d="M319.93,27.74a11.07,11.07,0,0,0-2.85,2.45c-.13-5.62-4.17-7.87-9.14-5A16.72,16.72,0,0,0,303.55,29c-2.21-3.86-6.79-4.76-12.1-1.7-7.47,4.31-13.52,14.8-13.52,23.42a16.2,16.2,0,0,0,.13,2,5,5,0,0,0-3.78.76,14.28,14.28,0,0,0-6.47,11.21c0,4.12,2.89,5.79,6.47,3.73L319.93,42.1a13.72,13.72,0,0,0,6.22-10.77C326.15,27.36,323.37,25.76,319.93,27.74Z" transform="translate(-4.61 -23.94)"/><path class="cls-5" d="M328.07,34.91a11.08,11.08,0,0,0-2.86,2.45c-.13-5.62-4.16-7.87-9.13-5a16.56,16.56,0,0,0-4.39,3.83c-2.21-3.87-6.8-4.76-12.11-1.7-7.46,4.31-13.52,14.8-13.52,23.42a16.15,16.15,0,0,0,.14,2,5.07,5.07,0,0,0-3.79.76,14.3,14.3,0,0,0-6.47,11.2c0,4.13,2.9,5.8,6.47,3.74l45.66-26.36a13.76,13.76,0,0,0,6.22-10.77C334.29,34.53,331.5,32.92,328.07,34.91Z" transform="translate(-4.61 -23.94)"/><path class="cls-3" d="M71.07,243.43a1.38,1.38,0,0,1-.71-.19,1.41,1.41,0,0,1-.71-1.22V223.93a1.4,1.4,0,0,1,.71-1.22L86,213.66a1.41,1.41,0,0,1,2.12,1.23V233a1.44,1.44,0,0,1-.7,1.23l-15.67,9A1.37,1.37,0,0,1,71.07,243.43Zm1.41-18.68v14.82l12.84-7.41V217.33ZM86.73,233h0Z" transform="translate(-4.61 -23.94)"/><polygon class="cls-6" points="55.7 307.78 33.11 294.73 55.7 281.69 78.29 294.73 55.7 307.78"/><path class="cls-7" d="M60.31,323.64a1.76,1.76,0,0,1-.86-.23l-22.59-13a1.72,1.72,0,0,1,0-3l22.59-13a1.71,1.71,0,0,1,1.72,0l22.59,13a1.72,1.72,0,0,1,0,3l-22.59,13A1.76,1.76,0,0,1,60.31,323.64ZM41.15,308.88l19.16,11.06,19.15-11.06L60.31,297.82Z" transform="translate(-4.61 -23.94)"/><polygon class="cls-8" points="78.29 274.75 55.7 287.79 55.7 261.71 78.29 248.66 78.29 274.75"/><polygon class="cls-9" points="55.7 261.71 33.11 248.66 55.7 235.62 78.29 248.66 55.7 261.71"/><polygon class="cls-10" points="55.7 287.79 33.11 274.75 33.11 248.66 55.7 261.71 55.7 287.79"/><polygon class="cls-3" points="47.57 273.7 41.25 270.05 41.25 262.76 47.57 266.4 47.57 273.7"/><polygon class="cls-6" points="308.64 167.28 286.05 154.24 308.64 141.19 331.24 154.24 308.64 167.28"/><path class="cls-7" d="M313.25,183.14a1.66,1.66,0,0,1-.86-.23l-22.59-13a1.71,1.71,0,0,1,0-3l22.59-13a1.71,1.71,0,0,1,1.72,0l22.59,13a1.71,1.71,0,0,1,0,3l-22.59,13A1.66,1.66,0,0,1,313.25,183.14Zm-19.16-14.76,19.16,11.06,19.15-11.06-19.15-11Z" transform="translate(-4.61 -23.94)"/><polygon class="cls-11" points="331.24 134.25 308.64 147.29 308.64 121.21 331.24 108.17 331.24 134.25"/><polygon class="cls-12" points="308.64 121.21 286.06 108.17 308.64 95.13 331.23 108.17 308.64 121.21"/><polygon class="cls-13" points="308.64 147.29 286.06 134.25 286.06 108.17 308.64 121.21 308.64 147.29"/><polygon class="cls-3" points="300.51 133.2 294.19 129.56 294.19 122.26 300.51 125.91 300.51 133.2"/><polygon class="cls-6" points="308.64 307.78 286.05 294.73 308.64 281.69 331.23 294.73 308.64 307.78"/><path class="cls-7" d="M313.25,323.64a1.76,1.76,0,0,1-.86-.23l-22.59-13a1.72,1.72,0,0,1,0-3l22.59-13a1.71,1.71,0,0,1,1.72,0l22.59,13a1.72,1.72,0,0,1,0,3l-22.59,13A1.76,1.76,0,0,1,313.25,323.64Zm-19.16-14.76,19.16,11.06,19.16-11.06-19.16-11.06Z" transform="translate(-4.61 -23.94)"/><polygon class="cls-14" points="331.23 274.75 308.64 287.79 308.64 261.71 331.23 248.66 331.23 274.75"/><polygon class="cls-15" points="308.64 261.71 286.05 248.66 308.64 235.62 331.23 248.66 308.64 261.71"/><polygon class="cls-16" points="308.64 287.79 286.05 274.75 286.05 248.66 308.64 261.71 308.64 287.79"/><polygon class="cls-3" points="300.51 273.7 294.19 270.05 294.19 262.76 300.51 266.4 300.51 273.7"/><polygon class="cls-6" points="55.7 167.28 33.11 154.24 55.7 141.19 78.29 154.24 55.7 167.28"/><path class="cls-7" d="M60.31,183.14a1.66,1.66,0,0,1-.86-.23l-22.59-13a1.71,1.71,0,0,1,0-3l22.59-13a1.71,1.71,0,0,1,1.72,0l22.59,13a1.71,1.71,0,0,1,0,3l-22.59,13A1.66,1.66,0,0,1,60.31,183.14ZM41.15,168.38l19.16,11.06,19.15-11.06-19.15-11Z" transform="translate(-4.61 -23.94)"/><polygon class="cls-17" points="78.29 134.25 55.7 147.29 55.7 121.21 78.29 108.17 78.29 134.25"/><polygon class="cls-18" points="55.7 121.21 33.11 108.17 55.7 95.13 78.29 108.17 55.7 121.21"/><polygon class="cls-19" points="55.7 147.29 33.11 134.25 33.11 108.17 55.7 121.21 55.7 147.29"/><polygon class="cls-3" points="47.57 133.2 41.25 129.56 41.25 122.26 47.57 125.91 47.57 133.2"/><rect class="cls-7" x="230.85" y="169.28" width="75.86" height="3.43" transform="translate(-54.09 133.31) rotate(-29.99)"/><path class="cls-6" d="M181.45,283.34,123.51,249.9c-2.12-1.23-1.85-3.37.6-4.79l61.4-35.54c2.45-1.42,6.16-1.57,8.29-.34l57.93,33.44c2.13,1.23,1.86,3.37-.59,4.79L189.73,283C187.28,284.42,183.57,284.57,181.45,283.34Z" transform="translate(-4.61 -23.94)"/><path class="cls-7" d="M185.05,272.35a9,9,0,0,1-4.46-1.05l-57.94-33.44a4.2,4.2,0,0,1-2.29-3.57,5.05,5.05,0,0,1,2.89-4.19l61.4-35.55c3-1.71,7.37-1.86,10-.34l57.94,33.45a4.15,4.15,0,0,1,2.29,3.56,5.06,5.06,0,0,1-2.88,4.2L190.59,271A11.36,11.36,0,0,1,185.05,272.35Zm-2.74-4c1.59.92,4.66.76,6.56-.34l61.41-35.55c.86-.49,1.17-1,1.17-1.22s-.18-.36-.58-.59l-57.93-33.45c-1.59-.91-4.66-.75-6.57.35L125,233.07c-.86.5-1.17,1-1.17,1.22s.17.36.57.59Z" transform="translate(-4.61 -23.94)"/><path class="cls-20" d="M185.63,107.28s-31.81,3-51,4.5l50.82,144.71,67.21-38.76,0,0,.12-.07h0a3.73,3.73,0,0,0,1.37-3.31V72.87A10.22,10.22,0,0,0,253,68.36Z" transform="translate(-4.61 -23.94)"/><path class="cls-21" d="M250.05,64.92,190.94,30.79a2.68,2.68,0,0,0-2.69-.23h0L120.77,69.49,124,81.26l16.92,48.18,3.18,1.84,109-62.93A8.35,8.35,0,0,0,250.05,64.92Z" transform="translate(-4.61 -23.94)"/><path class="cls-22" d="M182.62,256.36l-59.11-34.12c-2.3-1.33-4.16-4.89-4.16-8V72.84c0-3.07,1.86-4.48,4.16-3.15l59.11,34.13c2.3,1.32,4.16,4.88,4.16,8V253.22C186.78,256.28,184.92,257.69,182.62,256.36Z" transform="translate(-4.61 -23.94)"/><path class="cls-3" d="M183.88,103.11,124.78,69a2.47,2.47,0,0,0-3.28.24,3.11,3.11,0,0,1,2,.47l59.11,34.13c2.3,1.32,4.16,4.88,4.16,8V253.22a4.27,4.27,0,0,1-.89,2.9c1.29-.2,2.16-1.52,2.16-3.62V111.06C188.05,108,186.18,104.43,183.88,103.11Z" transform="translate(-4.61 -23.94)"/><path class="cls-23" d="M178.9,247.85,127.23,218c-2-1.16-3.64-4.27-3.64-6.95V79.7c0-2.68,1.63-3.91,3.64-2.75l51.67,29.83c2,1.16,3.64,4.27,3.64,7V245.1C182.54,247.78,180.91,249,178.9,247.85Z" transform="translate(-4.61 -23.94)"/><path class="cls-23" d="M178.9,247.85,127.23,218c-2-1.16-3.64-4.27-3.64-6.95V79.7c0-2.68,1.63-3.91,3.64-2.75l51.67,29.83c2,1.16,3.64,4.27,3.64,7V245.1C182.54,247.78,180.91,249,178.9,247.85Z" transform="translate(-4.61 -23.94)"/><path class="cls-24" d="M178.9,247.85,127.23,218c-2-1.16-3.64-4.27-3.64-6.95V79.7c0-2.68,1.63-3.91,3.64-2.75l51.67,29.83c2,1.16,3.64,4.27,3.64,7V245.1C182.54,247.78,180.91,249,178.9,247.85Z" transform="translate(-4.61 -23.94)"/><path class="cls-25" d="M180.59,246.85,128.92,217c-2-1.16-3.64-4.27-3.64-7V78.71a4.21,4.21,0,0,1,.52-2.2c-1.3,0-2.21,1.19-2.21,3.19V211.06c0,2.68,1.63,5.79,3.64,6.95l51.67,29.84c1.32.76,2.48.48,3.11-.56A2.8,2.8,0,0,1,180.59,246.85Z" transform="translate(-4.61 -23.94)"/><path class="cls-24" d="M178.9,187.54l-19.21-11.09-30.63,17.68L182.54,225V194.49C182.54,191.81,180.91,188.7,178.9,187.54Z" transform="translate(-4.61 -23.94)"/><path class="cls-24" d="M178.9,160.62l-19.21-11.09-30.63,17.68,53.48,30.88V167.57C182.54,164.89,180.91,161.78,178.9,160.62Z" transform="translate(-4.61 -23.94)"/><path class="cls-24" d="M178.9,133.7l-19.21-11.09L129.06,140.3l53.48,30.87V140.65C182.54,138,180.91,134.86,178.9,133.7Z" transform="translate(-4.61 -23.94)"/><path class="cls-24" d="M178.9,106.78,159.69,95.69l-30.63,17.69,53.48,30.87V113.73C182.54,111.05,180.91,107.94,178.9,106.78Z" transform="translate(-4.61 -23.94)"/><path class="cls-24" d="M178.9,106.78,136.38,82.23l-7.32,4.23,53.48,30.87v-3.6C182.54,111.05,180.91,107.94,178.9,106.78Z" transform="translate(-4.61 -23.94)"/><polygon class="cls-22" points="177.93 93.39 124.46 62.52 124.46 79.53 177.93 110.41 177.93 93.39"/><polygon class="cls-22" points="177.93 120.31 124.46 89.44 124.46 106.45 177.93 137.32 177.93 120.31"/><polygon class="cls-22" points="177.93 147.23 124.46 116.35 124.46 133.37 177.93 164.24 177.93 147.23"/><polygon class="cls-22" points="177.93 174.15 124.46 143.27 124.46 160.29 177.93 191.16 177.93 174.15"/><polygon class="cls-22" points="177.93 201.06 124.46 170.19 124.46 187.2 177.93 218.08 177.93 201.06"/><path class="cls-24" d="M177.82,128.28,137.54,105a5,5,0,0,1-2.06-3.94V96.54c0-1.52.93-2.21,2.06-1.56l40.28,23.26a4.9,4.9,0,0,1,2.06,3.93v4.56C179.88,128.24,179,128.94,177.82,128.28Z" transform="translate(-4.61 -23.94)"/><path class="cls-26" d="M139.58,104.16a4.93,4.93,0,0,1-2.06-3.94V95.67a2.65,2.65,0,0,1,.08-.66l-.06,0c-1.13-.65-2.06,0-2.06,1.56v4.55a5,5,0,0,0,2.06,3.94l40.28,23.25a1.23,1.23,0,0,0,2-.9Z" transform="translate(-4.61 -23.94)"/><path class="cls-3" d="M165.18,115.8l-24.24-14a1.73,1.73,0,0,1-.72-1.38h0c0-.54.32-.78.72-.55l24.24,14a1.74,1.74,0,0,1,.73,1.39h0C165.91,115.78,165.58,116,165.18,115.8Z" transform="translate(-4.61 -23.94)"/><path class="cls-24" d="M177.82,155l-40.28-23.26a5,5,0,0,1-2.06-3.93v-4.56c0-1.52.93-2.21,2.06-1.56L177.82,145a4.92,4.92,0,0,1,2.06,3.93v4.56C179.88,155,179,155.69,177.82,155Z" transform="translate(-4.61 -23.94)"/><path class="cls-26" d="M139.58,130.91a4.93,4.93,0,0,1-2.06-3.94v-4.55a2.71,2.71,0,0,1,.08-.66l-.06,0c-1.13-.65-2.06,0-2.06,1.56v4.56a5,5,0,0,0,2.06,3.93L177.82,155a1.23,1.23,0,0,0,2-.91Z" transform="translate(-4.61 -23.94)"/><path class="cls-3" d="M165.18,142.55l-24.24-14a1.73,1.73,0,0,1-.72-1.38h0c0-.53.32-.78.72-.55l24.24,14a1.74,1.74,0,0,1,.73,1.38h0C165.91,142.53,165.58,142.78,165.18,142.55Z" transform="translate(-4.61 -23.94)"/><path class="cls-24" d="M177.82,182l-40.28-23.26a4.94,4.94,0,0,1-2.06-3.93v-4.56c0-1.51.93-2.21,2.06-1.55L177.82,172a4.93,4.93,0,0,1,2.06,3.93v4.56C179.88,182,179,182.69,177.82,182Z" transform="translate(-4.61 -23.94)"/><path class="cls-26" d="M139.58,157.91a4.93,4.93,0,0,1-2.06-3.93v-4.56a2.71,2.71,0,0,1,.08-.66l-.06,0c-1.13-.66-2.06,0-2.06,1.55v4.56a4.94,4.94,0,0,0,2.06,3.93L177.82,182a1.23,1.23,0,0,0,2-.91Z" transform="translate(-4.61 -23.94)"/><path class="cls-27" d="M165.18,169.55l-24.24-14a1.73,1.73,0,0,1-.72-1.38h0c0-.53.32-.78.72-.55l24.24,14a1.74,1.74,0,0,1,.73,1.38h0C165.91,169.53,165.58,169.78,165.18,169.55Z" transform="translate(-4.61 -23.94)"/><path class="cls-24" d="M177.82,209.29,137.54,186a4.94,4.94,0,0,1-2.06-3.93v-4.56c0-1.51.93-2.21,2.06-1.55l40.28,23.25a4.93,4.93,0,0,1,2.06,3.93v4.56C179.88,209.25,179,209.94,177.82,209.29Z" transform="translate(-4.61 -23.94)"/><path class="cls-26" d="M139.58,185.16a4.93,4.93,0,0,1-2.06-3.93v-4.56a2.57,2.57,0,0,1,.08-.65l-.06,0c-1.13-.66-2.06,0-2.06,1.55v4.56a4.94,4.94,0,0,0,2.06,3.93l40.28,23.26a1.23,1.23,0,0,0,2-.91Z" transform="translate(-4.61 -23.94)"/><path class="cls-28" d="M165.18,196.8l-24.24-14a1.76,1.76,0,0,1-.72-1.39h0c0-.53.32-.78.72-.55l24.24,14a1.74,1.74,0,0,1,.73,1.38h0C165.91,196.78,165.58,197,165.18,196.8Z" transform="translate(-4.61 -23.94)"/><path class="cls-24" d="M177.82,236l-40.28-23.26a4.93,4.93,0,0,1-2.06-3.93v-4.56c0-1.51.93-2.21,2.06-1.55L177.82,226a4.93,4.93,0,0,1,2.06,3.93v4.56C179.88,236,179,236.65,177.82,236Z" transform="translate(-4.61 -23.94)"/><path class="cls-26" d="M139.58,211.87a4.93,4.93,0,0,1-2.06-3.93v-4.56a2.57,2.57,0,0,1,.08-.65l-.06,0c-1.13-.66-2.06,0-2.06,1.55v4.56a4.93,4.93,0,0,0,2.06,3.93L177.82,236a1.23,1.23,0,0,0,2-.9Z" transform="translate(-4.61 -23.94)"/><path class="cls-27" d="M165.18,223.51l-24.24-14a1.75,1.75,0,0,1-.72-1.39h0c0-.53.32-.78.72-.55l24.24,14a1.74,1.74,0,0,1,.73,1.38h0C165.91,223.5,165.58,223.74,165.18,223.51Z" transform="translate(-4.61 -23.94)"/><polygon class="cls-29" points="124.46 62.52 128.67 64.95 128.67 81.96 124.46 79.53 124.46 62.52"/><polygon class="cls-29" points="124.46 89.44 128.67 91.87 128.67 108.88 124.46 106.45 124.46 89.44"/><polygon class="cls-29" points="124.46 116.35 128.67 118.78 128.67 135.8 124.46 133.37 124.46 116.35"/><polygon class="cls-29" points="124.46 143.27 128.67 145.7 128.67 162.72 124.46 160.29 124.46 143.27"/><polygon class="cls-29" points="124.46 170.19 128.67 172.62 128.67 189.63 124.46 187.2 124.46 170.19"/><ellipse class="cls-27" cx="169.1" cy="116.98" rx="0.7" ry="1.21" transform="matrix(0.87, -0.5, 0.5, 0.87, -40.44, 76.3)"/><path class="cls-28" d="M173.57,119.56c0,.55-.38.77-.85.49a1.87,1.87,0,0,1-.85-1.47c0-.55.38-.77.85-.49A1.87,1.87,0,0,1,173.57,119.56Z" transform="translate(-4.61 -23.94)"/><path class="cls-27" d="M177.19,121.65c0,.54-.39.76-.86.49a1.88,1.88,0,0,1-.85-1.48c0-.54.38-.76.85-.49A1.9,1.9,0,0,1,177.19,121.65Z" transform="translate(-4.61 -23.94)"/><path class="cls-28" d="M170,144.38c0,.54-.38.76-.86.49a1.87,1.87,0,0,1-.85-1.47c0-.55.38-.77.85-.5A1.88,1.88,0,0,1,170,144.38Z" transform="translate(-4.61 -23.94)"/><path class="cls-27" d="M173.57,146.47c0,.54-.38.76-.85.49a1.88,1.88,0,0,1-.85-1.48c0-.54.38-.76.85-.49A1.88,1.88,0,0,1,173.57,146.47Z" transform="translate(-4.61 -23.94)"/><path class="cls-3" d="M177.19,148.55c0,.55-.39.77-.86.5a1.91,1.91,0,0,1-.85-1.48c0-.54.38-.77.85-.49A1.89,1.89,0,0,1,177.19,148.55Z" transform="translate(-4.61 -23.94)"/><path class="cls-3" d="M170,171.49c0,.54-.38.76-.86.49a1.88,1.88,0,0,1-.85-1.48c0-.54.38-.76.85-.49A1.86,1.86,0,0,1,170,171.49Z" transform="translate(-4.61 -23.94)"/><path class="cls-28" d="M173.57,173.57c0,.55-.38.77-.85.5a1.91,1.91,0,0,1-.85-1.48c0-.54.38-.76.85-.49A1.87,1.87,0,0,1,173.57,173.57Z" transform="translate(-4.61 -23.94)"/><path class="cls-3" d="M177.19,175.66c0,.54-.39.77-.86.49a1.87,1.87,0,0,1-.85-1.47c0-.55.38-.77.85-.5A1.92,1.92,0,0,1,177.19,175.66Z" transform="translate(-4.61 -23.94)"/><path class="cls-3" d="M170,198.2c0,.54-.38.76-.86.49a1.87,1.87,0,0,1-.85-1.47c0-.55.38-.77.85-.5A1.89,1.89,0,0,1,170,198.2Z" transform="translate(-4.61 -23.94)"/><path class="cls-27" d="M173.57,200.29c0,.54-.38.76-.85.49a1.88,1.88,0,0,1-.85-1.48c0-.54.38-.76.85-.49A1.88,1.88,0,0,1,173.57,200.29Z" transform="translate(-4.61 -23.94)"/><path class="cls-27" d="M177.19,202.37c0,.55-.39.77-.86.5a1.91,1.91,0,0,1-.85-1.48c0-.54.38-.76.85-.49A1.89,1.89,0,0,1,177.19,202.37Z" transform="translate(-4.61 -23.94)"/><path class="cls-3" d="M170,225.28c0,.54-.38.76-.86.49a1.88,1.88,0,0,1-.85-1.48c0-.54.38-.76.85-.49A1.86,1.86,0,0,1,170,225.28Z" transform="translate(-4.61 -23.94)"/><path class="cls-28" d="M173.57,227.36c0,.55-.38.77-.85.5a1.91,1.91,0,0,1-.85-1.48c0-.54.38-.76.85-.49A1.87,1.87,0,0,1,173.57,227.36Z" transform="translate(-4.61 -23.94)"/><path class="cls-27" d="M177.19,229.45c0,.55-.39.77-.86.49a1.87,1.87,0,0,1-.85-1.47c0-.55.38-.77.85-.5A1.92,1.92,0,0,1,177.19,229.45Z" transform="translate(-4.61 -23.94)"/><path class="cls-24" d="M195.68,237.24V116.8l.25-.14,50.34-29.07V208l-.25.14Zm1-119.86V235.52l48.59-28.06V89.32Z" transform="translate(-4.61 -23.94)"/><path class="cls-24" d="M233.19,141.79l-22.57,13c-1.52.87-2.74-.06-2.74-2.08V140.23a6.58,6.58,0,0,1,2.74-5.25l22.57-13c1.52-.87,2.75,0,2.75,2.08v12.51A6.59,6.59,0,0,1,233.19,141.79Z" transform="translate(-4.61 -23.94)"/><path class="cls-22" d="M233.74,121.71a3.6,3.6,0,0,1,.2,1.25v12.52a6.57,6.57,0,0,1-2.74,5.24l-22.57,13a2.94,2.94,0,0,1-.55.25,1.6,1.6,0,0,0,2.54.82l22.57-13a6.59,6.59,0,0,0,2.75-5.25V124C235.94,122.25,235,121.32,233.74,121.71Z" transform="translate(-4.61 -23.94)"/><path class="cls-3" d="M229.07,134.25c.42-.24.75-.05.75.44v2.85a1.64,1.64,0,0,1-.75,1.3c-.42.25-.76,0-.76-.43v-2.85A1.67,1.67,0,0,1,229.07,134.25Z" transform="translate(-4.61 -23.94)"/><path class="cls-27" d="M225.83,136.47c.42-.24.76,0,.76.44v2.5a1.65,1.65,0,0,1-.76,1.3c-.42.24-.75,0-.75-.43v-2.5A1.68,1.68,0,0,1,225.83,136.47Z" transform="translate(-4.61 -23.94)"/><path class="cls-28" d="M222.59,135.56c.42-.24.76,0,.76.44v5.27a1.66,1.66,0,0,1-.76,1.31c-.41.24-.75,0-.75-.43v-5.28A1.69,1.69,0,0,1,222.59,135.56Z" transform="translate(-4.61 -23.94)"/><path class="cls-27" d="M219.36,134.39c.41-.24.75,0,.75.44v8.31a1.67,1.67,0,0,1-.75,1.31c-.42.24-.76.05-.76-.43V135.7A1.67,1.67,0,0,1,219.36,134.39Z" transform="translate(-4.61 -23.94)"/><path class="cls-27" d="M216.12,137.13c.41-.24.75,0,.75.44V145a1.69,1.69,0,0,1-.75,1.31c-.42.24-.76.05-.76-.43v-7.45A1.67,1.67,0,0,1,216.12,137.13Z" transform="translate(-4.61 -23.94)"/><path class="cls-3" d="M212.88,142.4c.42-.24.76,0,.76.44v4a1.67,1.67,0,0,1-.76,1.31c-.42.24-.76.05-.76-.44v-4A1.67,1.67,0,0,1,212.88,142.4Z" transform="translate(-4.61 -23.94)"/><path class="cls-28" d="M228.33,132.81c0,.47.33.66.74.43a1.66,1.66,0,0,0,.74-1.29c0-.47-.33-.66-.74-.43A1.66,1.66,0,0,0,228.33,132.81Z" transform="translate(-4.61 -23.94)"/><ellipse class="cls-3" cx="229.07" cy="129.7" rx="1.05" ry="0.61" transform="translate(-2.4 239.28) rotate(-60)"/><path class="cls-6" d="M182.94,344.45l-34.51-19.92c-2.12-1.23-1.85-3.36.59-4.78l33.33-19.24c2.44-1.41,6.14-1.56,8.26-.34l34.51,19.93c2.12,1.22,1.86,3.36-.59,4.77l-33.32,19.24C188.76,345.52,185.06,345.67,182.94,344.45Z" transform="translate(-4.61 -23.94)"/><path class="cls-7" d="M186.55,336.34a9.22,9.22,0,0,1-4.59-1.1h0l-34.51-19.92a4.41,4.41,0,0,1-2.41-3.77,5.28,5.28,0,0,1,3-4.4l33.33-19.24c3.08-1.78,7.47-1.93,10.22-.34L226.1,307.5a4.38,4.38,0,0,1,2.41,3.76,5.26,5.26,0,0,1-3,4.4L192.19,334.9A11.46,11.46,0,0,1,186.55,336.34Zm-2.63-4.49c1.52.88,4.47.72,6.3-.34l33.33-19.24c.84-.49,1-.92,1-1a1.26,1.26,0,0,0-.45-.37L189.63,291c-1.52-.87-4.46-.71-6.3.35L150,310.55c-.83.48-1,.92-1,1a1.16,1.16,0,0,0,.45.37l34.51,19.93Z" transform="translate(-4.61 -23.94)"/><path class="cls-30" d="M226.54,299.06h0V287.15l-26.7,0-9.23-5.33c-2.12-1.22-5.82-1.07-8.26.35l-8.61,5-26.73,0v12.25a2.38,2.38,0,0,0,1.42,2.21l34.51,19.93c2.12,1.22,5.82,1.07,8.27-.34l33.32-19.24C225.94,301.09,226.62,300,226.54,299.06Z" transform="translate(-4.61 -23.94)"/><path class="cls-31" d="M186.78,281a9.49,9.49,0,0,0-4.43,1.17l-8.61,5-26.73,0v12.25a2.38,2.38,0,0,0,1.42,2.21l34.51,19.93a7.51,7.51,0,0,0,3.84.82Z" transform="translate(-4.61 -23.94)"/><path class="cls-27" d="M150,287.1h-3v12.25a2.38,2.38,0,0,0,1.42,2.21l1.61.93Z" transform="translate(-4.61 -23.94)"/><path class="cls-22" d="M183.47,321.75a9.41,9.41,0,0,0,6.61-.08v-13.9h-6.61Z" transform="translate(-4.61 -23.94)"/><path class="cls-32" d="M182.94,309.29l-34.51-19.93c-2.12-1.22-1.85-3.36.59-4.77l33.33-19.24c2.44-1.41,6.14-1.57,8.26-.34l34.51,19.92c2.12,1.23,1.86,3.36-.59,4.77l-33.32,19.24C188.76,310.36,185.06,310.51,182.94,309.29Z" transform="translate(-4.61 -23.94)"/><path class="cls-3" d="M224.53,287.36,191.21,306.6c-2.45,1.41-6.15,1.57-8.27.34L148.43,287a3.29,3.29,0,0,1-1.06-.94c-.72,1.17-.39,2.44,1.06,3.28l34.51,19.93c2.12,1.22,5.82,1.07,8.27-.35l33.32-19.24c1.9-1.09,2.48-2.63,1.65-3.83A4.5,4.5,0,0,1,224.53,287.36Z" transform="translate(-4.61 -23.94)"/><path class="cls-27" d="M213.85,302.2a3.07,3.07,0,0,1-1.4,2.41c-.77.45-1.39.09-1.39-.8a3.09,3.09,0,0,1,1.39-2.42C213.22,301,213.85,301.31,213.85,302.2Z" transform="translate(-4.61 -23.94)"/><path class="cls-27" d="M218.33,299.61a3.06,3.06,0,0,1-1.39,2.41c-.77.45-1.4.09-1.4-.8a3.1,3.1,0,0,1,1.4-2.42C217.71,298.36,218.33,298.72,218.33,299.61Z" transform="translate(-4.61 -23.94)"/><path class="cls-27" d="M222.82,297a3.07,3.07,0,0,1-1.4,2.41c-.77.45-1.39.09-1.39-.8a3.09,3.09,0,0,1,1.39-2.42C222.19,295.77,222.82,296.13,222.82,297Z" transform="translate(-4.61 -23.94)"/><path class="cls-22" d="M185,296.93l-16.15-9.32c-1-.57-.86-1.57.28-2.23l15.59-9a4.31,4.31,0,0,1,3.87-.16l16.15,9.33c1,.57.87,1.57-.28,2.23l-15.59,9A4.28,4.28,0,0,1,185,296.93Z" transform="translate(-4.61 -23.94)"/><path class="cls-27" d="M186.53,289.13l-2.24-1.29c-.13-.08-.12-.22,0-.31l2.16-1.25a.61.61,0,0,1,.54,0l2.23,1.29c.14.08.12.22,0,.31l-2.16,1.24A.56.56,0,0,1,186.53,289.13Z" transform="translate(-4.61 -23.94)"/><path class="cls-30" d="M168.83,287.61l0,0a1.34,1.34,0,0,1,.23-.16l15.59-9a4.31,4.31,0,0,1,3.87-.16l16.11,9.3c.91-.65,1-1.54,0-2.07l-16.15-9.33a4.31,4.31,0,0,0-3.87.16l-15.59,9C168,286,167.84,287,168.83,287.61Z" transform="translate(-4.61 -23.94)"/><path class="cls-6" d="M309.42,256.53,274.9,236.61c-2.11-1.23-1.85-3.36.6-4.77l33.32-19.24c2.45-1.42,6.15-1.57,8.26-.35l34.52,19.93c2.11,1.22,1.85,3.36-.6,4.77l-33.32,19.24C315.23,257.6,311.53,257.76,309.42,256.53Z" transform="translate(-4.61 -23.94)"/><path class="cls-7" d="M313,248.42a9.32,9.32,0,0,1-4.58-1.09h0L273.92,227.4a4.4,4.4,0,0,1-2.41-3.77,5.28,5.28,0,0,1,3-4.39L307.84,200c3.09-1.79,7.48-1.93,10.22-.35l34.52,19.93a4.4,4.4,0,0,1,2.41,3.77,5.28,5.28,0,0,1-3,4.39L318.66,247A11.43,11.43,0,0,1,313,248.42Zm-2.63-4.49c1.53.88,4.47.72,6.31-.34L350,224.35c.84-.48,1-.92,1.05-1a1.35,1.35,0,0,0-.45-.38L316.1,203.05c-1.52-.88-4.46-.72-6.3.34l-33.32,19.24c-.84.48-1,.92-1.05,1a1.35,1.35,0,0,0,.45.38l34.52,19.92Z" transform="translate(-4.61 -23.94)"/><path class="cls-30" d="M353,211.14h0V199.23l-26.71,0-9.23-5.32c-2.11-1.23-5.81-1.07-8.26.34l-8.61,5H273.48v12.24a2.42,2.42,0,0,0,1.42,2.22l34.52,19.92c2.11,1.22,5.81,1.07,8.26-.34L351,214C352.41,213.17,353.1,212.12,353,211.14Z" transform="translate(-4.61 -23.94)"/><path class="cls-33" d="M313.25,193.07a9.36,9.36,0,0,0-4.43,1.16l-8.61,5H273.48v12.24a2.42,2.42,0,0,0,1.42,2.22l34.52,19.92a7.38,7.38,0,0,0,3.83.82Z" transform="translate(-4.61 -23.94)"/><path class="cls-27" d="M276.51,199.19h-3v12.24a2.42,2.42,0,0,0,1.42,2.22l1.61.92Z" transform="translate(-4.61 -23.94)"/><path class="cls-22" d="M310,233.83a9.44,9.44,0,0,0,6.6-.07V219.85H310Z" transform="translate(-4.61 -23.94)"/><path class="cls-34" d="M309.42,221.37,274.9,201.44c-2.11-1.22-1.85-3.36.6-4.77l33.32-19.24c2.45-1.41,6.15-1.56,8.26-.34L351.6,197c2.11,1.22,1.85,3.35-.6,4.77L317.68,221C315.23,222.44,311.53,222.59,309.42,221.37Z" transform="translate(-4.61 -23.94)"/><path class="cls-3" d="M351,199.44l-33.32,19.24c-2.45,1.42-6.15,1.57-8.26.35L274.9,199.1a3,3,0,0,1-1-.94c-.73,1.17-.4,2.44,1,3.28l34.52,19.93c2.11,1.22,5.81,1.07,8.26-.34L351,201.79c1.9-1.1,2.48-2.63,1.65-3.84A4.5,4.5,0,0,1,351,199.44Z" transform="translate(-4.61 -23.94)"/><path class="cls-27" d="M340.32,214.28a3.06,3.06,0,0,1-1.39,2.41c-.77.45-1.4.09-1.4-.8a3.07,3.07,0,0,1,1.4-2.41C339.7,213,340.32,213.39,340.32,214.28Z" transform="translate(-4.61 -23.94)"/><path class="cls-27" d="M344.81,211.69a3.1,3.1,0,0,1-1.4,2.42c-.77.44-1.39.08-1.39-.81a3.06,3.06,0,0,1,1.39-2.41C344.18,210.44,344.81,210.8,344.81,211.69Z" transform="translate(-4.61 -23.94)"/><path class="cls-27" d="M349.29,209.1a3.09,3.09,0,0,1-1.39,2.42c-.77.44-1.4.08-1.4-.81a3.07,3.07,0,0,1,1.4-2.41C348.67,207.85,349.29,208.21,349.29,209.1Z" transform="translate(-4.61 -23.94)"/><path class="cls-22" d="M311.46,209l-16.15-9.33c-1-.57-.87-1.57.27-2.23l15.6-9a4.25,4.25,0,0,1,3.87-.16l16.15,9.32c1,.57.86,1.57-.28,2.23l-15.6,9A4.29,4.29,0,0,1,311.46,209Z" transform="translate(-4.61 -23.94)"/><path class="cls-27" d="M313,201.21l-2.23-1.29c-.14-.08-.12-.22,0-.31l2.15-1.25a.61.61,0,0,1,.54,0l2.23,1.29c.14.08.12.22,0,.31l-2.15,1.25A.61.61,0,0,1,313,201.21Z" transform="translate(-4.61 -23.94)"/><path class="cls-30" d="M295.31,199.69l0,0,.23-.16,15.6-9a4.31,4.31,0,0,1,3.87-.16l16.1,9.3c.91-.65,1-1.54.05-2.07l-16.15-9.32a4.25,4.25,0,0,0-3.87.16l-15.6,9C294.44,198.12,294.32,199.12,295.31,199.69Z" transform="translate(-4.61 -23.94)"/><path class="cls-6" d="M56.47,256.53,22,236.61c-2.12-1.23-1.85-3.36.59-4.77L55.88,212.6c2.44-1.42,6.14-1.57,8.26-.35l34.51,19.93c2.12,1.22,1.86,3.36-.59,4.77L64.74,256.19C62.29,257.6,58.59,257.76,56.47,256.53Z" transform="translate(-4.61 -23.94)"/><path class="cls-7" d="M60.08,248.42a9.36,9.36,0,0,1-4.59-1.09h0L21,227.4a4.4,4.4,0,0,1-2.41-3.77,5.28,5.28,0,0,1,3-4.39L54.9,200c3.08-1.79,7.48-1.93,10.22-.35l34.51,19.93a4.41,4.41,0,0,1,2.42,3.77,5.28,5.28,0,0,1-3,4.39L65.72,247A11.46,11.46,0,0,1,60.08,248.42Zm-2.63-4.49c1.52.88,4.47.72,6.31-.34l33.32-19.24c.84-.48,1-.92,1-1a1.13,1.13,0,0,0-.45-.38L63.16,203.05c-1.52-.88-4.46-.72-6.3.34L23.54,222.63c-.84.48-1,.92-1.05,1a1.23,1.23,0,0,0,.45.38l34.51,19.92Z" transform="translate(-4.61 -23.94)"/><path class="cls-30" d="M100.07,211.14h0V199.23l-26.7,0-9.23-5.32c-2.12-1.23-5.82-1.07-8.26.34l-8.61,5H20.54v12.24A2.4,2.4,0,0,0,22,213.65l34.51,19.92c2.12,1.22,5.82,1.07,8.27-.34L98.06,214C99.47,213.17,100.15,212.12,100.07,211.14Z" transform="translate(-4.61 -23.94)"/><path class="cls-35" d="M60.31,193.07a9.36,9.36,0,0,0-4.43,1.16l-8.61,5H20.54v12.24A2.4,2.4,0,0,0,22,213.65l34.51,19.92a7.41,7.41,0,0,0,3.84.82Z" transform="translate(-4.61 -23.94)"/><path class="cls-27" d="M23.57,199.19h-3v12.24A2.4,2.4,0,0,0,22,213.65l1.61.92Z" transform="translate(-4.61 -23.94)"/><path class="cls-22" d="M57,233.83a9.44,9.44,0,0,0,6.6-.07V219.85H57Z" transform="translate(-4.61 -23.94)"/><path class="cls-36" d="M56.47,221.37,22,201.44c-2.12-1.22-1.85-3.36.59-4.77l33.33-19.24c2.44-1.41,6.14-1.56,8.26-.34L98.65,197c2.12,1.22,1.86,3.35-.59,4.77L64.74,221C62.29,222.44,58.59,222.59,56.47,221.37Z" transform="translate(-4.61 -23.94)"/><path class="cls-3" d="M98.06,199.44,64.74,218.68c-2.45,1.42-6.15,1.57-8.27.35L22,199.1a3.18,3.18,0,0,1-1.06-.94c-.72,1.17-.39,2.44,1.06,3.28l34.51,19.93c2.12,1.22,5.82,1.07,8.27-.34l33.32-19.24c1.9-1.1,2.48-2.63,1.65-3.84A4.5,4.5,0,0,1,98.06,199.44Z" transform="translate(-4.61 -23.94)"/><path class="cls-27" d="M87.38,214.28A3.06,3.06,0,0,1,86,216.69c-.77.45-1.4.09-1.4-.8a3.07,3.07,0,0,1,1.4-2.41C86.76,213,87.38,213.39,87.38,214.28Z" transform="translate(-4.61 -23.94)"/><path class="cls-27" d="M91.86,211.69a3.09,3.09,0,0,1-1.39,2.42c-.77.44-1.39.08-1.39-.81a3.06,3.06,0,0,1,1.39-2.41C91.24,210.44,91.86,210.8,91.86,211.69Z" transform="translate(-4.61 -23.94)"/><path class="cls-27" d="M96.35,209.1A3.09,3.09,0,0,1,95,211.52c-.77.44-1.4.08-1.4-.81A3.07,3.07,0,0,1,95,208.3C95.73,207.85,96.35,208.21,96.35,209.1Z" transform="translate(-4.61 -23.94)"/><path class="cls-22" d="M58.51,209l-16.15-9.33c-1-.57-.86-1.57.28-2.23l15.6-9a4.23,4.23,0,0,1,3.86-.16l16.15,9.32c1,.57.87,1.57-.27,2.23l-15.6,9A4.31,4.31,0,0,1,58.51,209Z" transform="translate(-4.61 -23.94)"/><path class="cls-27" d="M60.06,201.21l-2.23-1.29c-.14-.08-.12-.22,0-.31L60,198.36a.61.61,0,0,1,.54,0l2.23,1.29c.14.08.12.22,0,.31l-2.15,1.25A.61.61,0,0,1,60.06,201.21Z" transform="translate(-4.61 -23.94)"/><path class="cls-30" d="M42.36,199.69l0,0a1.88,1.88,0,0,1,.23-.16l15.6-9a4.29,4.29,0,0,1,3.86-.16l16.11,9.3c.91-.65,1-1.54,0-2.07L62.1,188.3a4.23,4.23,0,0,0-3.86.16l-15.6,9C41.5,198.12,41.37,199.12,42.36,199.69Z" transform="translate(-4.61 -23.94)"/></svg>