<svg xmlns="http://www.w3.org/2000/svg" viewBox="0 0 387.4 283">
  <defs/>
  <defs>
    <style>
      @keyframes clockFlip{0%{transform:perspective(2000px) rotateY(90deg) skewY(-1deg)}30%{transform:perspective(2000px) rotateY(-25deg) skewY(-.8deg)}50%{transform:perspective(2000px) rotateY(20deg) skewY(.8deg)}70%{transform:perspective(2000px) rotateY(-10deg) skewY(-.8deg)}to{transform:perspective(2000px) rotateY(0deg)}}@keyframes contactLap{0%{transform:translate(150px,0)}20%{transform:translate(0,5px)}}@keyframes locationOpecity{0%,to{opacity:1.5}50%{opacity:.4}}@keyframes contact-locate{0%{transform:translate(0,0)}50%{transform:translate(0,8px)}}@keyframes contactBlocka-1{0%{transform:translate(0,0)}50%{transform:translate(20px,0)}}@keyframes contactBlocka-2{0%{transform:translate(0,0)}50%{transform:translate(-20px,0)}}.cls-1,.cls-2{fill:#173d7a}.cls-1{opacity:.5}.cls-3{fill:#d4ecff}.cls-4{fill:#396caa}.cls-5{fill:#5793ce}.cls-6{fill:#ffc2b0}.cls-7{fill:#fff}.cls-8{fill:#ea9c92}.cls-9{fill:#fe9e1f}.contact_location{animation-name:contact-locate;animation-duration:3s;animation-iteration-count:infinite;transform-origin:50% 50%}
    </style>
  </defs>
  <g id="Layer_2" data-name="Layer 2">
    <g id="Ñëîé_1" data-name="Ñëîé 1">
      <ellipse cx="46.4" cy="246.9" class="cls-1" rx="18.9" ry="10.9"/>
      <path d="M45.3 241.2c.2.5 3.8 4.9 7.4 6a8.4 8.4 0 003.4.5 1.1 1.1 0 00.9-1.5 13.8 13.8 0 00-7-7.7c-6.1-3-4.7 2.7-4.7 2.7zM44 242.8a30 30 0 011.9 6c.2 1.6-.7 3.7-1.4 5.1a1.5 1.5 0 01-2.4.4 8.7 8.7 0 01-3-5.6c-.4-4.5 0-5.3 0-5.3z" class="cls-2"/>
      <path d="M35.3 188.1a85 85 0 000 12c.5 6.4 2.2 35.9 2.5 43 0 0-.2 2.2 4 1.7s3.8-2.9 3.8-2.9 5.9 0 6-3.5 6-41.2 6-54.7z" class="cls-3"/>
      <path d="M45.6 242a12.2 12.2 0 001.7-.2l1.2-46z" class="cls-4"/>
      <path d="M41.5 146.2c-9.5 4-9.3 9.5-9.3 9.5s1.9 20.5 1.3 34.2c-.3 5.7 30.3 6.1 25.8-9.1-5.4-18-3.4-32.6-6-34.8s-9.4-.8-11.8.2z" class="cls-5"/>
      <ellipse cx="43.2" cy="150" class="cls-6" rx="4.9" ry="3.6" transform="rotate(-14.5 43.2 149.9)"/>
      <path d="M42.5 154.2c-2.3 0-4.2-1-4.6-2.9-.6-2.2 1.3-4.6 4.2-5.4s5.8.5 6.4 2.7a3.8 3.8 0 01-.9 3.3 6.4 6.4 0 01-3.4 2.1 7.1 7.1 0 01-1.7.2zM39 151c.4 1.6 2.6 2.4 4.9 1.8a5.2 5.2 0 002.8-1.6 2.6 2.6 0 00.6-2.3c-.4-1.6-2.6-2.4-4.9-1.9s-3.8 2.4-3.4 4z" class="cls-7"/>
      <path d="M45.3 145.8a23.7 23.7 0 000 3.4c.1 1-3.2 1.8-4 1s-.5-1.8-.8-5 4.8.6 4.8.6z" class="cls-6"/>
      <path d="M40.5 145.2s.9 3 4.9 4.1l-.1-2.7z" class="cls-8"/>
      <circle cx="45.1" cy="139.5" r="7.3" class="cls-6" transform="rotate(-13.5 45 139.5)"/>
      <path d="M43.4 139.7a22.5 22.5 0 006.8 1.8c2.7 0 2.1-2.3 2.1-2.3l-8.2-1.2z" class="cls-8"/>
      <path d="M51 140.2a13 13 0 00-6.5-.9 3.2 3.2 0 00-1.9 1.1 1.1 1.1 0 01-.6.4c-.5.1-1.4-2.1-2.4-2.2s-1.8.7-1 2.1.6 3 .2 3.2-4.6-3-.9-10.4 13.2-3.4 14.7-2c0 0 1.6 1.4 2.8.2 0 0 1.4 10.6-4.4 8.5z" class="cls-9"/>
      <path d="M58 144.6l5-2.2a2.2 2.2 0 001.3-1.4l5-14.5 2.3.4-4 18.1a3 3 0 01-1.5 2l-8.4 4.8zM5.1 147l-1.1-.6a9.4 9.4 0 01-2.7-1.9l-.8-.8a1.6 1.6 0 01-.4-1.7.9.9 0 011.2-.4l2.5 1.2s-.4-1-.2-1.4 2 1.8 2.9 3.3S5 147 5 147z" class="cls-6"/>
      <path d="M25.4 152.7l-4.3-.5a7.6 7.6 0 01-3-.9l-11.6-6.6L5 147l11.9 9.2a5.5 5.5 0 001.2.7l7 3zM71.7 126.9l.4-.5a4 4 0 001-2.1l.3-2.1a1.8 1.8 0 00-.7-1.8 1.1 1.1 0 00-1.7.6l-1 2.5s.4-1.3 0-1.5-1 1.6-.6 2.5a3.8 3.8 0 010 2z" class="cls-6"/>
      <path d="M48 144.5l1.8-.5a4.5 4.5 0 01-2.2 1.7c-1.3.4-1.5-.7-1.5-.7z" class="cls-7"/>
      <path d="M50.8 145s8.5-1.7 11-2.5 3.7 6.4 3.5 8.2-9 3.8-10 6.9-4.5-12.6-4.5-12.6zM37.8 148.1a66.5 66.5 0 01-16.6 4 1.1 1.1 0 00-1 .8 12.3 12.3 0 00-.5 6.2 2.3 2.3 0 002.3 1.8c3.2 0 10.2.3 11.4 3.3 1.5 4 4.4-16 4.4-16z" class="cls-5"/>
      <path d="M41.4 153.7l1.7 1.9a1.1 1.1 0 01.3.9l-1.1 10a1.1 1.1 0 00.2.9L46 172a.3.3 0 00.6 0l2-6.3a1 1 0 000-.8l-3.5-9.1a1 1 0 010-.7l.5-2.4z" class="cls-7"/>
      <path d="M22.9 159l9.9.9a3.2 3.2 0 012.8 4c-1.9 7.2.6 18.8.2 22.7-.6 4.6 2.3 6.4 2.3 6.4-2.8-.6-4.7-1.7-4.7-3a262.2 262.2 0 00-.6-26.7c-2-2.2-8-2.4-10.8-2.4a2.3 2.3 0 01-2.3-1.9 10.7 10.7 0 010-3.8s0 3.4 3.2 3.8z" class="cls-4"/>
      <path d="M107.2 283l-12.4-7.2 12.4-7.2 12.5 7.2-12.5 7.2z" class="cls-1"/>
      <path class="contact_location" fill="#fe9e1f" d="M119.7 266.7l-12.5 7.2v-14.4l12.5-7.1v14.3z"/>
      <path d="M107.2 259.5l-12.4-7.1 12.4-7.2 12.5 7.2-12.5 7.1z" class="cls-9 contact_location"/>
      <path d="M107.2 273.9l-12.4-7.2v-14.3l12.4 7.1v14.4z" class="cls-9 contact_location"/>
      <path d="M102.8 266.1l-3.5-2v-4l3.5 2v4z" class="cls-7 contact_location"/>
      <path d="M375.7 227.1l-11.7-6.7 11.7-6.8 11.7 6.8-11.7 6.7z" class="cls-1 contact_location"/>
      <path d="M387.4 211.8l-11.7 6.8v-13.5l11.7-6.8v13.5z" class="cls-2 contact_location"/>
      <path d="M375.7 205.1l-11.7-6.8 11.7-6.7 11.7 6.7-11.7 6.8z" class="cls-3 contact_location"/>
      <path d="M375.7 218.6l-11.7-6.8v-13.5l11.7 6.8v13.5z" class="cls-5 contact_location"/>
      <path d="M371.5 211.3l-3.2-1.9v-3.8l3.2 1.9v3.8z" class="cls-7 contact_location"/>
      <ellipse cx="325.1" cy="126.8" class="cls-1" rx="19.6" ry="11.3"/>
      <path d="M334.5 10.7s-.4 8.8-1.1 14.7-15-4.5-15-4.5V14z" class="cls-9"/>
      <path d="M326.9 120.4c-.2.5-4 5-7.6 6.1a8.6 8.6 0 01-3.4.5 1.1 1.1 0 01-1-1.5 14 14 0 017.2-7.8c6.2-3.1 4.8 2.7 4.8 2.7zM328.1 122.1a30.8 30.8 0 00-1.8 6c-.3 1.7.6 3.8 1.4 5.3a1.5 1.5 0 002.4.4 8.8 8.8 0 003-5.8c.4-4.6 0-5.4 0-5.4z" class="cls-2"/>
      <path d="M337 66.4a88 88 0 010 12.2c-.5 6.5-2.2 36.5-2.5 43.8 0 0 .1 2.2-4.1 1.7s-4-3-4-3-6 0-6-3.5-6.2-42-6.2-55.8z" class="cls-3"/>
      <path d="M312 36.3l-2.9 4.6-10 12.1a2.3 2.3 0 001.6 1.4c1 .3 9.4-7.8 13-11.3a2.8 2.8 0 00.5-3.6z" class="cls-6"/>
      <path d="M317.8 17.8s-4.7-.1-6.3 6.6-2.9 15-1.5 15.7c4.2 2.1 6.9-.3 6.9-.3z" class="cls-5"/>
      <path d="M316.4 18a3.8 3.8 0 012.5 0c4 1 18.8 5.4 21.2 7.5C343 28 336 41.5 336 46s.6 9.7 1 14.5.9 7.5-3 9.5a15.6 15.6 0 01-15.8-1.7c-5-3.8-4.1-6.5-4-9.3s2-14.9 1.8-18.3a13 13 0 01-3-3.6c-1.4-2.2 1-6.3 2-9s-.6-5.8-.3-8a2.5 2.5 0 011.7-2z" class="cls-5"/>
      <path d="M327.7 27.2l-1.7 2a1.1 1.1 0 00-.3.9l1.5 10.3a1.1 1.1 0 01-.2.8l-3.6 5a.3.3 0 01-.6-.1l-2.2-6.4a1.2 1.2 0 010-.7l3.4-9.5a1.2 1.2 0 000-.6l-.6-2.5z" class="cls-7"/>
      <path d="M321.1 22.7c-.3 2.4 2 4.7 5 5.1s5.8-1.2 6.2-3.7-2-4.7-5-5.1-5.9 1.3-6.2 3.7z" class="cls-7"/>
      <path d="M322.7 22.9c-.2 1.7 1.4 3.4 3.6 3.7s4.1-1 4.4-2.7-1.4-3.4-3.6-3.7-4.2 1-4.4 2.7z" class="cls-6"/>
      <path d="M324.9 17.2s2.7-2.2 3.2-1.1 1 5.9 1 5.9l-5.3 1.4.8-4.8s-1.1-1 .3-1.4z" class="cls-6"/>
      <circle cx="324.5" cy="11.4" r="8" class="cls-6"/>
      <path d="M328.5 17.5l.1.8c-.5 2.7-4.7 4-4.7 4l.6-3.7s-.5-.5-.3-.9c1.6-.5 3.7-1 4.3-.2z" class="cls-8"/>
      <circle cx="324.5" cy="11.4" r="8" class="cls-6"/>
      <path d="M344.1 45.1l-.9 21.2-3.1.4-2-19.2 6-2.4z" class="cls-6"/>
      <path d="M333.9 43.3c.1-.7 1.5-1.4 1.7-2.3a86.3 86.3 0 001.3-12.3l.9 10A28 28 0 00336 46c0 2.6.2 5.5.5 8.4s-3.7-6.6-2.6-11.1z" class="cls-4"/>
      <path d="M339.5 25s2.5 1 4 8.7 2.4 15.2-.1 16.2-4.6 1.8-5.4-.3-1.2-11.9-1.3-15.4-.2-8.4 2.8-9.1z" class="cls-5"/>
      <path d="M299.9 52a6.6 6.6 0 00-2.4 1.6 15.2 15.2 0 00-1.5 2.2c-.8 1.1-1.4 3.6-1 4s3.2-4.2 3.7-3.2 0 2 .5 2 2.5-4.5 4-5.9-3.3-.6-3.3-.6z" class="cls-6"/>
      <path d="M326.5 121.2a11.7 11.7 0 01-1.7-.2l-1.2-46.8zM331 96l1.6-2.2L350 83.7a2.4 2.4 0 001-2V67.5l1-1.3-.9-.5a.6.6 0 00-.7 0L330.7 77a2.4 2.4 0 00-1 2v15.5a.9.9 0 00.4.8z" class="cls-4"/>
      <path d="M343 87.8l1.2-.8 6.8-11.7v-7.8l1-1.3-1-.5a.6.6 0 00-.6 0L330.7 77a2 2 0 00-.7.9z" class="cls-4"/>
      <path d="M351.6 66.8l.4-.6-.9-.5a.6.6 0 00-.7 0l-.3.2zM330.5 77.2a2.6 2.6 0 00-.8 1.7l2 1.1.9-1.6z" class="cls-4"/>
      <path d="M331.6 77.7l19.8-11.5c.5-.3 1 0 1 .8v15.5a2.4 2.4 0 01-1 2l-19.7 11.4c-.6.3-1 0-1-.8V79.6a2.4 2.4 0 011-2z" class="cls-3"/>
      <path d="M331.4 77.5L351 66a.6.6 0 01.8 0 .7.7 0 00-.5.1l-19.8 11.5a2.4 2.4 0 00-1 1.9V95a1 1 0 00.3.7c-.3 0-.6-.4-.6-.9V79.4a2.4 2.4 0 011-2z" class="cls-7"/>
      <path d="M335.7 88.8l.9-.6v-8l-.9.5v8.1zM337.9 87.5l.9-.5v-8.1l-.9.6v8zM340.1 86.3l.9-.6v-8.1l-.9.6v8.1z" class="cls-7"/>
      <path d="M343.2 66.2a47 47 0 01.7 6.5c-.1 1.6-1 4.2-1.6 4.2s0-6.4-1.2-5.8-1.3 1.7-1.8 1.3 1-5.8.6-8.1 3.3 1.9 3.3 1.9z" class="cls-6"/>
      <path d="M321.5 12.1c-4 1.5-4.8.6-4.9.5V12a7.9 7.9 0 01.2-2.5L327.2 8a11.2 11.2 0 01-5.7 4.1z" class="cls-8"/>
      <path d="M316.3 4c1-.8 4.3-4.8 10.4-3.9 3.8.6 7 3.2 7.7 9.1a13.6 13.6 0 01-3.7 10.8 4.3 4.3 0 01-.4-.2c-1.5-1-1.7-1.6-1.7-1.6l-.3-3a.8.8 0 01.7-.8 1.5 1.5 0 001.1-.7 1.8 1.8 0 00-1.2-3 1.3 1.3 0 01-1.4-1 .7.7 0 00-1-.5c-2 .8-6.8 2.3-10 1.4-4-1.1-1.1-5.8-.2-6.6z" class="cls-9"/>
      <path d="M320.8 15.7l-2.4-.6a5.9 5.9 0 002.8 2.3c1.7.4 2-1 2-1z" class="cls-7"/>
      <path d="M339 72.3l2.1-1.2-.8 1.3-1 .4-.3-.5z" class="cls-4"/>
      <path d="M329.1 14a.8.8 0 10.9-1 .8.8 0 00-.9 1z" class="cls-7"/>
      <path d="M196.8 206.6l-29.9-17.3c-1.8-1-1.6-2.9.6-4.1l28.8-16.6a8 8 0 017.1-.4l29.9 17.3c1.8 1 1.6 2.9-.5 4.1L204 206.3a8 8 0 01-7.2.3z" class="cls-1"/>
      <path d="M243.2 172.4v-13h-29l-10-5.7c-2.2-1.3-6.2-1.2-9 .4l-9.2 5.3h-29v13.3a2.6 2.6 0 001.5 2.4l37.5 21.6c2.3 1.3 6.3 1.1 9-.4l36-20.9c1.6-.8 2.3-2 2.2-3z" class="cls-4"/>
      <path d="M200.1 152.8a10.2 10.2 0 00-4.8 1.2l-9.3 5.4h-29v13.3a2.6 2.6 0 001.5 2.4l37.5 21.6a8 8 0 004.2.9z" class="cls-4"/>
      <path d="M160.3 159.4H157v13.3a2.6 2.6 0 001.5 2.4l1.8 1zM196.5 197a10.2 10.2 0 007.2 0v-15.2h-7.2z" class="cls-5"/>
      <path d="M196 183.4L158.6 162c-2.3-1.4-2-3.7.7-5.2l36-20.9c2.7-1.5 6.7-1.7 9-.3l37.5 21.6c2.3 1.3 2 3.6-.7 5.1l-36 20.9c-2.8 1.5-6.8 1.7-9.1.3z" class="cls-3"/>
      <path d="M196.6 179.6l-31.3-18.1c-2-1.1-1.7-3 .5-4.4l30.3-17.4c2.2-1.3 5.6-1.5 7.5-.4l31.3 18.1c2 1.2 1.7 3.1-.5 4.4l-30.3 17.4a8.3 8.3 0 01-7.5.4z" class="cls-5"/>
      <path d="M229.4 175.8a3.4 3.4 0 01-1.5 2.6c-.8.5-1.5 0-1.5-.9a3.3 3.3 0 011.5-2.6c.9-.5 1.5 0 1.5.9zM234.3 173a3.3 3.3 0 01-1.5 2.6c-.8.5-1.5.1-1.5-.8a3.3 3.3 0 011.5-2.7c.8-.5 1.5-.1 1.5.9zM239.2 170.2a3.3 3.3 0 01-1.5 2.6c-.9.4-1.5 0-1.5-.9a3.4 3.4 0 011.5-2.6c.8-.5 1.5-.1 1.5.9z" class="cls-3"/>
      <path d="M243.2 151.7v-12.9h-29l-10-5.7c-2.2-1.4-6.2-1.2-9 .3l-9.2 5.4h-29v13.3a2.6 2.6 0 001.5 2.4L196 176c2.3 1.3 6.3 1.1 9-.4l36-20.9c1.6-.8 2.3-2 2.2-3z" class="cls-4"/>
      <path d="M200.1 132.2a10.2 10.2 0 00-4.8 1.2l-9.3 5.4h-29v13.3a2.6 2.6 0 001.5 2.4L196 176a8 8 0 004.2.8z" class="cls-4"/>
      <path d="M160.3 138.8H157V152a2.6 2.6 0 001.5 2.4l1.8 1zM196.5 176.3a10.2 10.2 0 007.2 0v-15.1h-7.2z" class="cls-5"/>
      <path d="M196 162.8l-37.4-21.6c-2.3-1.3-2-3.6.7-5.1l36-20.9c2.7-1.5 6.7-1.7 9-.3l37.5 21.5c2.3 1.4 2 3.7-.7 5.2l-36 20.9c-2.8 1.5-6.8 1.7-9.1.3z" class="cls-3"/>
      <path d="M196.6 159l-31.3-18.2c-2-1-1.7-3 .5-4.3l30.3-17.5c2.2-1.3 5.6-1.4 7.5-.3l31.3 18c2 1.2 1.7 3-.5 4.4l-30.3 17.5a8.4 8.4 0 01-7.5.3z" class="cls-5"/>
      <path d="M229.4 155.2a3.3 3.3 0 01-1.5 2.6c-.8.5-1.5 0-1.5-1a3.3 3.3 0 011.5-2.5c.9-.5 1.5-.1 1.5.8zM234.3 152.3a3.3 3.3 0 01-1.5 2.7c-.8.5-1.5 0-1.5-.9a3.3 3.3 0 011.5-2.6c.8-.5 1.5-.1 1.5.8zM239.2 149.5a3.3 3.3 0 01-1.5 2.6c-.9.5-1.5.1-1.5-.8a3.4 3.4 0 011.5-2.6c.8-.5 1.5-.1 1.5.8z" class="cls-3"/>
      <path d="M243.2 131.1v-12.9h-29l-10-5.8c-2.2-1.3-6.2-1.1-9 .4l-9.2 5.4h-29v13.3a2.6 2.6 0 001.5 2.4l37.5 21.5c2.3 1.4 6.3 1.2 9-.3l36-20.9c1.6-.9 2.3-2 2.2-3z" class="cls-4"/>
      <path d="M200.1 111.5a10.2 10.2 0 00-4.8 1.3l-9.3 5.4h-29v13.3a2.6 2.6 0 001.5 2.4l37.5 21.5a8 8 0 004.2 1z" class="cls-4"/>
      <path d="M160.3 118.2H157v13.2a2.6 2.6 0 001.5 2.4l1.8 1zM196.5 155.7a10.2 10.2 0 007.2 0v-15.1h-7.2z" class="cls-5"/>
      <path d="M196 142.2l-37.4-21.6c-2.3-1.3-2-3.6.7-5.1l36-20.9c2.7-1.5 6.7-1.7 9-.4l37.4 21.6c2.3 1.3 2 3.7-.6 5.2L205 141.8c-2.7 1.6-6.7 1.7-9 .4z" class="cls-3"/>
      <path d="M196.6 138.3l-31.3-18c-2-1.2-1.7-3 .5-4.4l30.3-17.5c2.2-1.3 5.6-1.4 7.5-.3l31.3 18.1c2 1.1 1.7 3-.5 4.3L204.1 138a8.4 8.4 0 01-7.5.3z" class="cls-5"/>
      <path d="M229.4 134.5a3.3 3.3 0 01-1.5 2.6c-.8.5-1.5.1-1.5-.8a3.4 3.4 0 011.5-2.7c.9-.4 1.5 0 1.5 1zM234.3 131.7a3.4 3.4 0 01-1.5 2.6c-.8.5-1.5.1-1.5-.8a3.3 3.3 0 011.5-2.6c.8-.5 1.5-.1 1.5.8zM239.2 129a3.3 3.3 0 01-1.5 2.5c-.9.5-1.5.1-1.5-.8a3.3 3.3 0 011.5-2.7c.8-.4 1.5 0 1.5 1z" class="cls-3"/>
      <path d="M243.2 110.5v-13h-29l-10-5.7c-2.2-1.3-6.2-1.1-9 .4l-9.2 5.4h-29v13.2a2.6 2.6 0 001.5 2.4l37.5 21.6c2.3 1.3 6.3 1.2 9-.4l36-20.8c1.6-.9 2.3-2 2.2-3.1z" class="cls-4"/>
      <path d="M200.1 91a10.2 10.2 0 00-4.8 1.2l-9.3 5.4h-29v13.2a2.6 2.6 0 001.5 2.4l37.5 21.6a8.2 8.2 0 004.2.9z" class="cls-4"/>
      <path d="M160.3 97.5H157v13.3a2.6 2.6 0 001.5 2.4l1.8 1zM196.5 135a10.2 10.2 0 007.2 0v-15h-7.2z" class="cls-5"/>
      <path d="M196 121.6L158.6 100c-2.3-1.3-2-3.6.6-5.2L195.3 74a10 10 0 019-.4l37.4 21.6c2.3 1.3 2 3.7-.6 5.2L205 121.2c-2.7 1.5-6.7 1.7-9 .4z" class="cls-3"/>
      <path d="M196.6 117.7l-31.3-18.1c-2-1.1-1.7-3 .5-4.3l30.3-17.5c2.2-1.3 5.6-1.4 7.5-.3l31.3 18c2 1.2 1.7 3-.5 4.4l-30.3 17.5a8.4 8.4 0 01-7.5.3z" class="cls-5"/>
      <path d="M229.4 113.9a3.3 3.3 0 01-1.5 2.6c-.8.5-1.5.1-1.5-.8a3.3 3.3 0 011.5-2.7c.9-.5 1.5 0 1.5.9zM234.3 111.1a3.3 3.3 0 01-1.5 2.6c-.8.5-1.5.1-1.5-.9a3.3 3.3 0 011.5-2.6c.8-.5 1.5 0 1.5.9zM239.2 108.3a3.3 3.3 0 01-1.5 2.6c-.9.5-1.5.1-1.5-.9a3.3 3.3 0 011.5-2.6c.8-.5 1.5 0 1.5.9z" class="cls-3"/>
      <path d="M243.2 89.9V77h-29l-10-5.8c-2.2-1.3-6.2-1.1-9 .4l-9.2 5.3h-29v13.3a2.6 2.6 0 001.5 2.4l37.5 21.6c2.3 1.3 6.3 1.1 9-.4L241 93c1.6-1 2.3-2 2.2-3.1z" class="cls-4"/>
      <path d="M200.1 70.3a10.5 10.5 0 00-4.8 1.3l-9.3 5.3h-29v13.3a2.6 2.6 0 001.5 2.4l37.5 21.6a8.3 8.3 0 004.2.9z" class="cls-2"/>
      <path d="M160.3 77H157v13.2a2.6 2.6 0 001.5 2.4l1.8 1zM196.5 114.5a10.2 10.2 0 007.2-.1v-15h-7.2z" class="cls-5"/>
      <path d="M196 101l-37.4-21.6c-2.3-1.3-2-3.6.7-5.2l36-20.8a10 10 0 019-.4l37.5 21.6c2.3 1.3 2 3.7-.7 5.2l-36 20.8c-2.8 1.5-6.8 1.7-9.1.4z" class="cls-3"/>
      <path d="M196.6 97l-31.3-18c-2-1.1-1.7-3 .5-4.3l30.3-17.5c2.2-1.3 5.6-1.4 7.5-.3L234.9 75c2 1.1 1.7 3-.5 4.3l-30.3 17.5a8.4 8.4 0 01-7.5.3z" class="cls-5"/>
      <path d="M211.9 98.3h17.3v.6h-17.3z" class="cls-7" transform="rotate(-30 220.5 98.7)"/>
      <path d="M229.4 93.3a3.3 3.3 0 01-1.5 2.6c-.8.5-1.5 0-1.5-.9a3.3 3.3 0 011.5-2.6c.9-.5 1.5 0 1.5.9zM234.3 90.5a3.3 3.3 0 01-1.5 2.6c-.8.5-1.5 0-1.5-.9a3.4 3.4 0 011.5-2.6c.8-.5 1.5 0 1.5.9zM239.2 87.7a3.3 3.3 0 01-1.5 2.6c-.9.5-1.5 0-1.5-.9a3.3 3.3 0 011.5-2.6c.8-.5 1.5 0 1.5.9z" class="cls-3"/>
      <path d="M243.2 69.1V56.2h-29l-10-5.8c-2.2-1.3-6.2-1.1-9 .4l-9.2 5.4h-29v13.2a2.6 2.6 0 001.5 2.4L196 93.4c2.3 1.3 6.3 1.2 9-.4l36-20.8c1.6-.9 2.3-2 2.2-3z" class="cls-4"/>
      <path d="M200.1 49.5a10.4 10.4 0 00-4.8 1.3l-9.3 5.4h-29v13.2a2.6 2.6 0 001.5 2.4L196 93.4a8 8 0 004.2 1z" class="cls-2"/>
      <path d="M160.3 56.2H157v13.2a2.6 2.6 0 001.5 2.4l1.8 1zM196.5 93.7a10.2 10.2 0 007.2 0V78.5h-7.2z" class="cls-5"/>
      <path d="M196 80.2l-37.4-21.6c-2.3-1.3-2-3.6.7-5.2l36-20.8c2.7-1.5 6.7-1.7 9-.4l37.5 21.6c2.3 1.3 2 3.7-.7 5.2L205 79.8c-2.6 1.6-6.6 1.7-8.9.4z" class="cls-3"/>
      <path d="M241 56.4l-36 20.9c-2.7 1.5-6.7 1.7-9 .4L158.4 56a3.4 3.4 0 01-1.1-1c-.8 1.2-.5 2.6 1.1 3.5L196 80.2c2.3 1.3 6.3 1.2 9-.4L241 59c2-1.2 2.7-2.9 1.8-4.2a5 5 0 01-1.8 1.6z" class="cls-7"/>
      <path d="M229.4 72.5a3.4 3.4 0 01-1.5 2.6c-.8.5-1.5.1-1.5-.8a3.3 3.3 0 011.5-2.6c.9-.5 1.5-.1 1.5.8zM214.6 80.7a3.4 3.4 0 01-1.5 2.6c-.9.5-1.5.1-1.5-.8a3.3 3.3 0 011.5-2.7c.8-.5 1.5 0 1.5.9z" class="cls-3"/>
      <path d="M214.6 102.1a3.4 3.4 0 01-1.5 2.6c-.9.5-1.5.1-1.5-.9a3.3 3.3 0 011.5-2.6c.8-.5 1.5 0 1.5.9z" class="cls-7"/>
      <path d="M234.3 69.7a3.3 3.3 0 01-1.5 2.6c-.8.5-1.5.1-1.5-.8a3.3 3.3 0 011.5-2.7c.8-.4 1.5 0 1.5 1zM239.2 67a3.3 3.3 0 01-1.5 2.5c-.9.5-1.5.1-1.5-.9a3.3 3.3 0 011.5-2.6c.8-.5 1.5 0 1.5 1z" class="cls-3"/>
      <path d="M198.2 66.8l-17.5-10c-1.1-.7-1-1.8.3-2.5l16.9-9.8a4.7 4.7 0 014.2-.1l17.5 10c1 .7.9 1.8-.3 2.5l-17 9.7a4.6 4.6 0 01-4.1.2z" class="cls-2"/>
      <path d="M199.8 58.4l-2.4-1.4v-.3l2.4-1.4a.6.6 0 01.5 0l2.5 1.4v.3l-2.4 1.4a.6.6 0 01-.6 0z" class="cls-3"/>
      <path d="M180.7 56.7a2.2 2.2 0 01.3-.2l16.9-9.7a4.6 4.6 0 014.2-.2l17.4 10c1-.6 1-1.6 0-2.2l-17.4-10a4.7 4.7 0 00-4.2.1L181 54.3c-1.3.7-1.4 1.8-.3 2.4z" class="cls-4"/>
      <path d="M194.5 83.3c0 1-.7 1.4-1.6.9a3.5 3.5 0 01-1.6-2.8c0-1 .7-1.4 1.6-.9a3.5 3.5 0 011.6 2.8z" class="cls-3"/>
      <path d="M189.6 80.4c0 1-.7 1.5-1.6 1a3.5 3.5 0 01-1.6-2.8c0-1 .7-1.4 1.6-1a3.5 3.5 0 011.6 2.8z" class="cls-5"/>
      <path d="M194.5 89.2c0 1-.7 1.4-1.6 1a3.5 3.5 0 01-1.6-2.8c0-1 .7-1.4 1.6-1a3.5 3.5 0 011.6 2.8zM189.6 86.4c0 1-.7 1.4-1.6 1a3.5 3.5 0 01-1.6-2.9c0-1 .7-1.4 1.6-.9a3.5 3.5 0 011.6 2.8zM194.5 103.8c0 1-.7 1.4-1.6.9a3.5 3.5 0 01-1.6-2.8c0-1 .7-1.4 1.6-1a3.5 3.5 0 011.6 2.8zM189.6 101c0 1-.7 1.3-1.6.8a3.5 3.5 0 01-1.6-2.7c0-1 .7-1.4 1.6-1a3.5 3.5 0 011.6 2.8z" class="cls-3"/>
      <path d="M194.5 109.7c0 1-.7 1.4-1.6 1a3.5 3.5 0 01-1.6-2.8c0-1 .7-1.5 1.6-1a3.5 3.5 0 011.6 2.8z" class="cls-5"/>
      <path d="M189.6 106.9c0 1-.7 1.4-1.6.9a3.5 3.5 0 01-1.6-2.8c0-1 .7-1.4 1.6-.9a3.5 3.5 0 011.6 2.8zM194.5 124.3c0 1-.7 1.4-1.6.9a3.5 3.5 0 01-1.6-2.8c0-1 .7-1.4 1.6-.9a3.5 3.5 0 011.6 2.8z" class="cls-3"/>
      <path d="M189.6 121.4c0 1-.7 1.4-1.6 1a3.5 3.5 0 01-1.6-2.8c0-1 .7-1.4 1.6-1a3.5 3.5 0 011.6 2.8z" class="cls-5"/>
      <path d="M194.5 130.2c0 1-.7 1.4-1.6 1a3.5 3.5 0 01-1.6-2.8c0-1 .7-1.5 1.6-1a3.5 3.5 0 011.6 2.8z" class="cls-3"/>
      <path d="M189.6 127.4c0 1-.7 1.4-1.6.9a3.5 3.5 0 01-1.6-2.8c0-1 .7-1.4 1.6-.9a3.5 3.5 0 011.6 2.8zM194.5 145c0 1-.7 1.4-1.6 1a3.5 3.5 0 01-1.6-2.8c0-1 .7-1.5 1.6-1a3.5 3.5 0 011.6 2.8z" class="cls-5"/>
      <path d="M189.6 142.1c0 1-.7 1.5-1.6 1a3.5 3.5 0 01-1.6-2.8c0-1 .7-1.4 1.6-1a3.5 3.5 0 011.6 2.8zM194.5 151c0 1-.7 1.3-1.6.8a3.5 3.5 0 01-1.6-2.7c0-1 .7-1.4 1.6-1a3.5 3.5 0 011.6 2.8z" class="cls-3"/>
      <path d="M189.6 148c0 1-.7 1.5-1.6 1a3.5 3.5 0 01-1.6-2.8c0-1 .7-1.4 1.6-.9a3.5 3.5 0 011.6 2.8zM194.5 165.5c0 1-.7 1.4-1.6.9a3.5 3.5 0 01-1.6-2.8c0-1 .7-1.4 1.6-.9a3.5 3.5 0 011.6 2.8z" class="cls-5"/>
      <path d="M189.6 162.6c0 1-.7 1.5-1.6 1a3.5 3.5 0 01-1.6-2.8c0-1 .7-1.4 1.6-1a3.5 3.5 0 011.6 2.8z" class="cls-3"/>
      <path d="M194.5 171.4c0 1-.7 1.5-1.6 1a3.5 3.5 0 01-1.6-2.8c0-1 .7-1.4 1.6-1a3.5 3.5 0 011.6 2.8z" class="cls-5"/>
      <path d="M189.6 168.6c0 1-.7 1.4-1.6 1a3.5 3.5 0 01-1.6-2.8c0-1 .7-1.5 1.6-1a3.5 3.5 0 011.6 2.8zM194.5 186.2c0 1-.7 1.5-1.6 1a3.5 3.5 0 01-1.6-2.8c0-1 .7-1.4 1.6-1a3.5 3.5 0 011.6 2.8z" class="cls-3"/>
      <path d="M189.6 183.4c0 1-.7 1.4-1.6 1a3.5 3.5 0 01-1.6-2.8c0-1 .7-1.5 1.6-1a3.5 3.5 0 011.6 2.8z" class="cls-5"/>
      <path d="M194.5 192.2c0 1-.7 1.4-1.6 1a3.5 3.5 0 01-1.6-2.8c0-1 .7-1.5 1.6-1a3.5 3.5 0 011.6 2.8zM189.6 189.4c0 1-.7 1.4-1.6.9a3.5 3.5 0 01-1.6-2.8c0-1 .7-1.4 1.6-.9a3.5 3.5 0 011.6 2.8z" class="cls-3"/>
      <path d="M255.6 240.4l-30-17.3c-1.7-1-1.5-2.9.6-4l28.8-16.7a8 8 0 017.2-.3l29.8 17.2c1.8 1 1.6 3-.5 4.1l-28.8 16.7a8 8 0 01-7.1.3z" class="cls-1"/>
      <path d="M302 206.2v-13h-29l-10-5.7c-2.2-1.3-6.2-1.2-8.9.4l-9.3 5.4h-29v13.2a2.6 2.6 0 001.5 2.4l37.4 21.6c2.3 1.3 6.3 1.2 9-.4l36.1-20.8c1.5-1 2.2-2 2.2-3.1z" class="cls-4"/>
      <path d="M258.9 186.6a10.2 10.2 0 00-4.8 1.3l-9.4 5.3h-29v13.3a2.6 2.6 0 001.6 2.4l37.4 21.6a8 8 0 004.1.9z" class="cls-2"/>
      <path d="M219 193.2h-3.2v13.3a2.6 2.6 0 001.5 2.4l1.7 1zM255.3 230.8a10.2 10.2 0 007.1-.1v-15h-7.1z" class="cls-5"/>
      <path d="M254.7 217.3l-37.4-21.6c-2.3-1.3-2-3.7.7-5.2l36-20.8c2.7-1.6 6.7-1.7 9-.4l37.4 21.6c2.3 1.3 2 3.6-.6 5.2l-36.1 20.8c-2.7 1.5-6.7 1.7-9 .4z" class="cls-3"/>
      <path d="M255.4 213.4L224 195.3c-2-1.1-1.7-3 .5-4.3l30.3-17.5c2.2-1.3 5.6-1.4 7.5-.3l31.3 18c2 1.2 1.7 3-.5 4.4l-30.3 17.5a8.4 8.4 0 01-7.4.3z" class="cls-5"/>
      <path d="M288.2 209.6a3.3 3.3 0 01-1.5 2.6c-.8.5-1.5 0-1.5-.9a3.4 3.4 0 011.5-2.6c.8-.5 1.5 0 1.5.9zM293 206.8a3.3 3.3 0 01-1.4 2.6c-.9.5-1.6 0-1.6-.9a3.3 3.3 0 011.6-2.6c.8-.5 1.5 0 1.5.9zM298 204a3.3 3.3 0 01-1.6 2.6c-.8.5-1.5.1-1.5-.8a3.4 3.4 0 011.5-2.7c.9-.5 1.5-.1 1.5.9z" class="cls-3"/>
      <path d="M302 185.6v-13h-29l-10-5.7c-2.2-1.3-6.2-1.2-8.9.4l-9.3 5.3h-29V186a2.6 2.6 0 001.5 2.4l37.4 21.6c2.3 1.3 6.3 1.2 9-.4l36.1-20.8c1.5-1 2.2-2 2.2-3.1z" class="cls-4"/>
      <path d="M258.9 166a10.2 10.2 0 00-4.8 1.3l-9.4 5.3h-29V186a2.6 2.6 0 001.6 2.4l37.4 21.6a8 8 0 004.1.9z" class="cls-2"/>
      <path d="M219 172.6h-3.2V186a2.6 2.6 0 001.5 2.4l1.7 1zM255.3 210.2a10.2 10.2 0 007.1-.1V195h-7.1z" class="cls-5"/>
      <path d="M254.7 196.7L217.3 175c-2.3-1.4-2-3.7.7-5.2l36-20.9c2.7-1.5 6.7-1.7 9-.4l37.4 21.6c2.3 1.3 2 3.7-.6 5.2l-36.1 20.8c-2.7 1.6-6.7 1.8-9 .5z" class="cls-3"/>
      <path d="M255.4 192.8L224 174.7c-2-1.1-1.7-3 .5-4.4l30.3-17.4c2.2-1.3 5.6-1.5 7.5-.4l31.3 18.1c2 1.2 1.7 3-.5 4.4l-30.3 17.4a8.4 8.4 0 01-7.4.4z" class="cls-5"/>
      <path d="M288.2 189a3.3 3.3 0 01-1.5 2.6c-.8.5-1.5.1-1.5-.9a3.4 3.4 0 011.5-2.6c.8-.5 1.5-.1 1.5.9zM293 186.2a3.4 3.4 0 01-1.4 2.6c-.9.5-1.6 0-1.6-.9a3.3 3.3 0 011.6-2.6c.8-.5 1.5-.1 1.5.9zM298 183.3a3.3 3.3 0 01-1.6 2.7c-.8.4-1.5 0-1.5-.9a3.3 3.3 0 011.5-2.6c.9-.5 1.5-.1 1.5.8z" class="cls-3"/>
      <path d="M302 165v-13h-29l-10-5.8c-2.3-1.3-6.3-1.1-9 .4l-9.3 5.4h-29v13.3a2.6 2.6 0 001.6 2.4l37.4 21.6c2.3 1.3 6.3 1.1 9-.4l36-20.9c1.6-.8 2.3-2 2.3-3z" class="cls-4"/>
      <path d="M258.9 145.4a10.3 10.3 0 00-4.8 1.2l-9.4 5.4h-29v13.3a2.6 2.6 0 001.6 2.4l37.4 21.6a8.2 8.2 0 004.1.9z" class="cls-2"/>
      <path d="M219 152h-3.2v13.3a2.6 2.6 0 001.5 2.4l1.7 1zM255.3 189.5a10.2 10.2 0 007.1 0v-15.1h-7.1z" class="cls-5"/>
      <path d="M254.7 176l-37.4-21.6c-2.3-1.3-2-3.6.7-5.2l36-20.8c2.7-1.5 6.7-1.7 9-.4l37.4 21.6c2.3 1.3 2 3.6-.6 5.2l-36.1 20.8c-2.7 1.6-6.7 1.8-9 .4z" class="cls-3"/>
      <path d="M255.4 172.1L224 154c-2-1.1-1.7-3 .5-4.3l30.3-17.5c2.2-1.3 5.6-1.4 7.5-.3l31.4 18.1c2 1.1 1.7 3-.5 4.3l-30.3 17.5a8.4 8.4 0 01-7.5.3z" class="cls-5"/>
      <path d="M288.2 168.3a3.3 3.3 0 01-1.5 2.7c-.8.4-1.5 0-1.5-1a3.3 3.3 0 011.5-2.5c.8-.5 1.5-.1 1.5.8zM293 165.5a3.3 3.3 0 01-1.4 2.6c-.9.5-1.6.2-1.6-.8a3.3 3.3 0 011.6-2.6c.8-.5 1.5-.1 1.5.8zM298 162.7a3.3 3.3 0 01-1.6 2.7c-.8.4-1.5 0-1.5-1a3.3 3.3 0 011.5-2.5c.9-.5 1.5-.1 1.5.8z" class="cls-3"/>
      <path d="M302 144.3v-12.9h-29l-10-5.8c-2.3-1.3-6.3-1.1-9 .4l-9.3 5.4h-29v13.3a2.6 2.6 0 001.6 2.4l37.4 21.6c2.3 1.3 6.3 1.1 9-.4l36-20.9c1.6-.9 2.3-2 2.3-3z" class="cls-4"/>
      <path d="M258.9 124.7a10.4 10.4 0 00-4.8 1.3l-9.4 5.4h-29v13.3a2.6 2.6 0 001.6 2.4l37.4 21.5a8.2 8.2 0 004.1 1z" class="cls-2"/>
      <path d="M219 131.4h-3.2v13.2a2.6 2.6 0 001.5 2.4l1.7 1zM255.3 169a10.2 10.2 0 007.1-.2v-15h-7.1z" class="cls-5"/>
      <path d="M254.7 155.4l-37.4-21.6c-2.3-1.3-2-3.6.7-5.2l36-20.8c2.7-1.5 6.7-1.7 9-.4l37.4 21.6c2.3 1.3 2 3.6-.6 5.2L263.7 155c-2.7 1.6-6.7 1.7-9 .4z" class="cls-3"/>
      <path d="M255.4 151.5l-31.4-18c-2-1.2-1.7-3 .5-4.4l30.3-17.5c2.2-1.3 5.6-1.4 7.5-.3l31.3 18.1c2 1.1 1.7 3-.5 4.3l-30.3 17.5a8.4 8.4 0 01-7.4.3z" class="cls-5"/>
      <path d="M288.2 147.7a3.3 3.3 0 01-1.5 2.6c-.8.5-1.5.1-1.5-.8a3.3 3.3 0 011.5-2.7c.8-.4 1.5 0 1.5 1zM293 145a3.3 3.3 0 01-1.4 2.5c-.9.5-1.6.1-1.6-.8a3.4 3.4 0 011.6-2.7c.8-.4 1.5 0 1.5 1zM298 142.1a3.4 3.4 0 01-1.6 2.6c-.8.5-1.5.1-1.5-.8a3.3 3.3 0 011.5-2.7c.9-.4 1.5 0 1.5 1z" class="cls-3"/>
      <path d="M302 123.7v-13h-29l-10-5.7c-2.3-1.3-6.3-1.2-9 .4l-9.3 5.4h-29V124a2.6 2.6 0 001.6 2.4l37.4 21.6c2.3 1.3 6.3 1.1 9-.4l36-20.8c1.6-.9 2.3-2 2.3-3.1z" class="cls-4"/>
      <path d="M258.9 104.1a10.4 10.4 0 00-4.8 1.3l-9.4 5.4h-29V124a2.6 2.6 0 001.6 2.4l37.4 21.6a8.2 8.2 0 004.1.9z" class="cls-2"/>
      <path d="M219 110.7h-3.2V124a2.6 2.6 0 001.5 2.4l1.7 1zM255.3 148.3a10.2 10.2 0 007.1 0V133h-7.1z" class="cls-5"/>
      <path d="M254.7 134.8l-37.4-21.6c-2.3-1.3-2-3.7.7-5.2l36-20.8c2.7-1.6 6.7-1.7 9-.4l37.4 21.6c2.3 1.3 2 3.6-.6 5.2l-36.1 20.8c-2.7 1.5-6.7 1.7-9 .4z" class="cls-3"/>
      <path d="M255.4 130.9L224 112.8c-2-1.1-1.7-3 .5-4.3L254.8 91a8.3 8.3 0 017.5-.3l31.4 18c2 1.2 1.7 3-.5 4.4l-30.3 17.5a8.3 8.3 0 01-7.5.3z" class="cls-5"/>
      <path d="M270.6 132.2h17.3v.6h-17.3z" class="cls-7" transform="matrix(.87 -.5 .5 .87 -28.8 157.5)"/>
      <path d="M288.2 127.1a3.4 3.4 0 01-1.5 2.6c-.8.5-1.5.1-1.5-.9a3.3 3.3 0 011.5-2.6c.8-.5 1.5 0 1.5.9zM293 124.3a3.3 3.3 0 01-1.4 2.6c-.9.5-1.6.1-1.6-.9a3.4 3.4 0 011.6-2.6c.8-.5 1.5 0 1.5.9zM298 121.5a3.3 3.3 0 01-1.6 2.6c-.8.5-1.5.1-1.5-.9a3.3 3.3 0 011.5-2.6c.9-.5 1.5 0 1.5.9z" class="cls-3"/>
      <path d="M302 103V90h-29l-10-5.8c-2.3-1.3-6.3-1.1-9 .4l-9.3 5.4h-29v13.3a2.6 2.6 0 001.6 2.4l37.4 21.6c2.3 1.3 6.3 1.1 9-.4l36-20.9c1.6-.9 2.3-2 2.3-3z" class="cls-4"/>
      <path d="M258.9 83.3a10.2 10.2 0 00-4.8 1.3l-9.4 5.4h-29v13.3a2.6 2.6 0 001.6 2.4l37.4 21.6a8 8 0 004.1.9z" class="cls-2"/>
      <path d="M219 90h-3.2v13.3a2.6 2.6 0 001.5 2.4l1.7 1zM255.3 127.5a10.2 10.2 0 007.1 0v-15.1h-7.1z" class="cls-5"/>
      <path d="M254.7 114l-37.4-21.6c-2.3-1.3-2-3.6.7-5.2l36-20.8c2.7-1.5 6.7-1.7 9-.4l37.4 21.6c2.3 1.3 2 3.6-.6 5.2l-36.1 20.8c-2.7 1.6-6.7 1.7-9 .4z" class="cls-3"/>
      <path d="M299.8 90.3L263.7 111c-2.7 1.5-6.7 1.7-9 .4l-37.4-21.6a3.4 3.4 0 01-1.2-1c-.8 1.3-.4 2.6 1.2 3.6l37.4 21.5c2.3 1.3 6.3 1.2 9-.4l36-20.8c2.1-1.2 2.8-2.9 1.9-4.2a5 5 0 01-1.8 1.7z" class="cls-7"/>
      <path d="M288.2 106.3a3.3 3.3 0 01-1.5 2.7c-.8.4-1.5 0-1.5-1a3.3 3.3 0 011.5-2.5c.8-.5 1.5-.1 1.5.8zM273.3 114.5a3.4 3.4 0 01-1.5 2.6c-.8.5-1.5.1-1.5-.8a3.3 3.3 0 011.5-2.6c.8-.5 1.5-.1 1.5.8z" class="cls-3"/>
      <path d="M273.3 136a3.3 3.3 0 01-1.5 2.5c-.8.5-1.5.1-1.5-.8a3.3 3.3 0 011.5-2.6c.8-.5 1.5-.1 1.5.8z" class="cls-7"/>
      <path d="M293 103.5a3.3 3.3 0 01-1.4 2.7c-.9.4-1.6 0-1.6-1a3.3 3.3 0 011.6-2.5c.8-.5 1.5-.1 1.5.8zM298 100.7a3.3 3.3 0 01-1.6 2.6c-.8.5-1.5.1-1.5-.8a3.4 3.4 0 011.5-2.7c.9-.4 1.5 0 1.5 1z" class="cls-3"/>
      <path d="M257 100.6l-17.6-10c-1-.7-1-1.8.3-2.5l17-9.7a4.7 4.7 0 014.1-.2l17.5 10c1 .7 1 1.8-.3 2.5l-16.9 9.8a4.7 4.7 0 01-4.2.1z" class="cls-2"/>
      <path d="M258.6 92.2l-2.4-1.4c-.2-.1-.1-.3 0-.4l2.3-1.3a.6.6 0 01.6 0l2.4 1.4c.2 0 .1.2 0 .3l-2.3 1.4a.6.6 0 01-.6 0z" class="cls-3"/>
      <path d="M239.4 90.5l.3-.1 17-9.8a4.7 4.7 0 014.1-.2l17.5 10.1c1-.7 1-1.7 0-2.3l-17.5-10a4.7 4.7 0 00-4.2.1l-16.9 9.8c-1.2.7-1.3 1.8-.3 2.4z" class="cls-4"/>
      <path d="M253.3 117c0 1-.8 1.5-1.6 1a3.5 3.5 0 01-1.6-2.8c0-1 .7-1.4 1.6-.9a3.5 3.5 0 011.6 2.8z" class="cls-3"/>
      <path d="M248.3 114.3c0 1-.7 1.4-1.6.9a3.5 3.5 0 01-1.6-2.8c0-1 .7-1.4 1.6-1a3.5 3.5 0 011.6 2.8z" class="cls-5"/>
      <path d="M253.3 123c0 1-.8 1.4-1.6 1a3.5 3.5 0 01-1.6-2.8c0-1 .7-1.5 1.6-1a3.5 3.5 0 011.6 2.8zM248.3 120.2c0 1-.7 1.4-1.6 1a3.5 3.5 0 01-1.6-2.8c0-1 .7-1.5 1.6-1a3.5 3.5 0 011.6 2.8zM253.3 137.6c0 1-.8 1.4-1.6.9a3.5 3.5 0 01-1.6-2.8c0-1 .7-1.4 1.6-.9a3.5 3.5 0 011.6 2.8zM248.3 134.7c0 1-.7 1.5-1.6 1a3.5 3.5 0 01-1.6-2.8c0-1 .7-1.4 1.6-1a3.5 3.5 0 011.6 2.8z" class="cls-3"/>
      <path d="M253.3 143.5c0 1-.8 1.5-1.6 1a3.5 3.5 0 01-1.6-2.8c0-1 .7-1.4 1.6-1a3.5 3.5 0 011.6 2.8z" class="cls-5"/>
      <path d="M248.3 140.7c0 1-.7 1.4-1.6 1a3.5 3.5 0 01-1.6-2.9c0-1 .7-1.4 1.6-.9a3.5 3.5 0 011.6 2.8zM253.3 158c0 1-.8 1.5-1.6 1a3.5 3.5 0 01-1.6-2.8c0-1 .7-1.4 1.6-.9a3.5 3.5 0 011.6 2.8z" class="cls-3"/>
      <path d="M248.3 155.2c0 1-.7 1.5-1.6 1a3.5 3.5 0 01-1.6-2.8c0-1 .7-1.4 1.6-1a3.5 3.5 0 011.6 2.8z" class="cls-5"/>
      <path d="M253.3 164c0 1-.8 1.4-1.6 1a3.5 3.5 0 01-1.6-2.8c0-1 .7-1.5 1.6-1a3.5 3.5 0 011.6 2.8z" class="cls-3"/>
      <path d="M248.3 161.2c0 1-.7 1.4-1.6 1a3.5 3.5 0 01-1.6-2.8c0-1 .7-1.5 1.6-1a3.5 3.5 0 011.6 2.8zM253.3 178.8c0 1-.8 1.4-1.6.9a3.5 3.5 0 01-1.6-2.8c0-1 .7-1.4 1.6-.9a3.5 3.5 0 011.6 2.8z" class="cls-5"/>
      <path d="M248.3 176c0 1-.7 1.4-1.6 1a3.5 3.5 0 01-1.6-2.8c0-1 .7-1.5 1.6-1a3.5 3.5 0 011.6 2.8zM253.3 184.7c0 1-.8 1.5-1.6 1a3.5 3.5 0 01-1.6-2.8c0-1 .7-1.4 1.6-1a3.5 3.5 0 011.6 2.8z" class="cls-3"/>
      <path d="M248.3 182c0 1-.7 1.3-1.6.8a3.5 3.5 0 01-1.6-2.7c0-1 .7-1.5 1.6-1a3.5 3.5 0 011.6 2.8zM253.3 199.3c0 1-.8 1.4-1.6 1a3.5 3.5 0 01-1.6-2.9c0-1 .7-1.4 1.6-.9a3.5 3.5 0 011.6 2.8z" class="cls-5"/>
      <path d="M248.3 196.5c0 1-.7 1.4-1.6.9a3.5 3.5 0 01-1.6-2.8c0-1 .7-1.4 1.6-.9a3.5 3.5 0 011.6 2.8z" class="cls-3"/>
      <path d="M253.3 205.3c0 1-.8 1.4-1.6.9a3.5 3.5 0 01-1.6-2.8c0-1 .7-1.4 1.6-1a3.5 3.5 0 011.6 2.8z" class="cls-5"/>
      <path d="M248.3 202.4c0 1-.7 1.4-1.6 1a3.5 3.5 0 01-1.6-2.8c0-1 .7-1.5 1.6-1a3.5 3.5 0 011.6 2.8zM253.3 220c0 1-.8 1.5-1.6 1a3.5 3.5 0 01-1.6-2.8c0-1 .7-1.4 1.6-.9a3.5 3.5 0 011.6 2.8z" class="cls-3"/>
      <path d="M248.3 217.2c0 1-.7 1.5-1.6 1a3.5 3.5 0 01-1.6-2.8c0-1 .7-1.4 1.6-1a3.5 3.5 0 011.6 2.8z" class="cls-5"/>
      <path d="M253.3 226c0 1-.8 1.4-1.6 1a3.5 3.5 0 01-1.6-2.8c0-1 .7-1.5 1.6-1a3.5 3.5 0 011.6 2.8zM248.3 223.2c0 1-.7 1.4-1.6.9a3.5 3.5 0 01-1.6-2.8c0-1 .7-1.4 1.6-.9a3.5 3.5 0 011.6 2.8z" class="cls-3"/>
      <path d="M138 240.5l-29.9-17.3c-1.8-1-1.6-2.9.6-4l28.8-16.7a8 8 0 017.1-.3l30 17.2c1.7 1 1.5 3-.6 4.1l-28.8 16.7a8 8 0 01-7.2.3z" class="cls-1"/>
      <path d="M184.4 206.3v-13h-28.9l-10-5.7c-2.3-1.3-6.3-1.2-9 .4l-9.3 5.4h-29v13.2a2.6 2.6 0 001.5 2.4l37.4 21.6c2.3 1.4 6.3 1.2 9-.3l36-20.9c1.7-1 2.4-2 2.3-3.1z" class="cls-4"/>
      <path d="M141.4 186.7a10.4 10.4 0 00-4.8 1.3l-9.4 5.3h-29v13.3a2.6 2.6 0 001.6 2.4l37.4 21.6a8.1 8.1 0 004.1.9z" class="cls-2"/>
      <path d="M101.5 193.3h-3.2v13.3a2.6 2.6 0 001.5 2.4l1.8 1zM137.8 230.9a10.2 10.2 0 007.1-.1v-15h-7.1z" class="cls-5"/>
      <path d="M137.2 217.4l-37.4-21.6c-2.3-1.4-2-3.7.7-5.2l36-20.8c2.7-1.6 6.7-1.7 9-.4L183 191c2.3 1.3 2 3.6-.6 5.2L146.2 217c-2.7 1.5-6.7 1.7-9 .4z" class="cls-3"/>
      <path d="M137.9 213.5l-31.4-18.1c-1.9-1.1-1.6-3 .6-4.4l30.2-17.4a8.3 8.3 0 017.5-.3l31.4 18c2 1.2 1.7 3-.5 4.4l-30.3 17.5c-2.2 1.3-5.6 1.4-7.5.3z" class="cls-5"/>
      <path d="M170.7 209.7a3.4 3.4 0 01-1.5 2.6c-.8.5-1.5 0-1.5-.9a3.3 3.3 0 011.5-2.6c.8-.5 1.5 0 1.5.9zM175.6 206.9a3.3 3.3 0 01-1.5 2.6c-.9.5-1.6 0-1.6-.9a3.3 3.3 0 011.6-2.6c.8-.5 1.5 0 1.5.9zM180.4 204a3.3 3.3 0 01-1.5 2.7c-.8.5-1.5 0-1.5-.9a3.3 3.3 0 011.5-2.6c.8-.5 1.5 0 1.5.9z" class="cls-3"/>
      <path d="M184.4 185.7v-13h-28.9l-10-5.7c-2.3-1.4-6.3-1.2-9 .3l-9.3 5.4h-29V186a2.6 2.6 0 001.5 2.4l37.5 21.6c2.3 1.3 6.3 1.2 9-.4l36-20.8c1.6-1 2.3-2 2.3-3.2z" class="cls-4"/>
      <path d="M141.4 166a10.3 10.3 0 00-4.8 1.3l-9.4 5.4h-29V186a2.6 2.6 0 001.6 2.4l37.4 21.6a8 8 0 004.2.9z" class="cls-2"/>
      <path d="M101.5 172.7h-3.2V186a2.6 2.6 0 001.5 2.4l1.8 1zM137.8 210.3a10.2 10.2 0 007.1-.1V195h-7.1z" class="cls-5"/>
      <path d="M137.2 196.7l-37.4-21.5c-2.3-1.4-2-3.7.7-5.2l36-20.9c2.7-1.5 6.7-1.7 9-.3l37.5 21.6c2.3 1.3 2 3.6-.7 5.1l-36.1 20.9c-2.7 1.5-6.7 1.7-9 .3z" class="cls-3"/>
      <path d="M137.9 192.8l-31.4-18c-1.9-1.2-1.6-3 .6-4.4l30.2-17.4c2.3-1.3 5.6-1.4 7.5-.3l31.4 18c2 1.2 1.7 3-.5 4.4l-30.3 17.5a8.3 8.3 0 01-7.5.3z" class="cls-5"/>
      <path d="M170.7 189a3.4 3.4 0 01-1.5 2.7c-.8.5-1.5 0-1.5-.9a3.3 3.3 0 011.5-2.6c.8-.5 1.5-.1 1.5.9zM175.6 186.3a3.3 3.3 0 01-1.5 2.6c-.9.4-1.6 0-1.6-.9a3.3 3.3 0 011.6-2.6c.8-.5 1.5-.1 1.5.8zM180.4 183.4a3.3 3.3 0 01-1.5 2.7c-.8.4-1.5 0-1.5-1a3.4 3.4 0 011.5-2.5c.8-.5 1.5-.1 1.5.8z" class="cls-3"/>
      <path d="M184.4 165v-12.9h-28.9l-10-5.8c-2.3-1.3-6.3-1.1-9 .4l-9.3 5.4h-29v13.3a2.6 2.6 0 001.5 2.4l37.4 21.5c2.3 1.4 6.3 1.2 9-.3l36-20.9c1.7-.9 2.4-2 2.3-3.1z" class="cls-4"/>
      <path d="M141.4 145.4a10.3 10.3 0 00-4.8 1.3l-9.4 5.4h-29v13.3a2.6 2.6 0 001.6 2.4l37.4 21.6a8 8 0 004.1.8z" class="cls-2"/>
      <path d="M101.5 152h-3.2v13.4a2.6 2.6 0 001.5 2.4l1.8 1zM137.8 189.6a10.2 10.2 0 007.1 0v-15.1h-7.1z" class="cls-5"/>
      <path d="M137.2 176.1l-37.4-21.6c-2.3-1.3-2-3.6.7-5.1l36-20.9c2.7-1.5 6.7-1.7 9-.4l37.5 21.6c2.3 1.4 2 3.7-.7 5.2l-36.1 20.9c-2.7 1.5-6.7 1.6-9 .3z" class="cls-3"/>
      <path d="M137.9 172.2l-31.4-18c-1.9-1.2-1.6-3 .6-4.4l30.2-17.5c2.3-1.3 5.6-1.4 7.5-.3l31.4 18.1c2 1.1 1.7 3-.5 4.3L145.3 172c-2.2 1.3-5.6 1.4-7.5.3z" class="cls-5"/>
      <path d="M170.7 168.4a3.3 3.3 0 01-1.5 2.6c-.8.5-1.5.1-1.5-.8a3.3 3.3 0 011.5-2.6c.8-.5 1.5-.1 1.5.8zM175.6 165.6a3.4 3.4 0 01-1.5 2.7c-.9.4-1.6 0-1.6-1a3.3 3.3 0 011.6-2.5c.8-.5 1.5-.1 1.5.8zM180.4 162.8a3.3 3.3 0 01-1.5 2.6c-.8.5-1.5.1-1.5-.8a3.3 3.3 0 011.5-2.6c.8-.5 1.5-.1 1.5.8z" class="cls-3"/>
      <path d="M184.4 144.4v-12.9h-28.9l-10-5.8c-2.3-1.3-6.3-1.1-9 .4l-9.3 5.4h-29v13.3a2.6 2.6 0 001.5 2.4l37.4 21.6c2.3 1.3 6.3 1.1 9-.4l36-20.9c1.7-.9 2.4-2 2.3-3z" class="cls-4"/>
      <path d="M141.4 124.8a10.3 10.3 0 00-4.8 1.3l-9.4 5.4h-29v13.2a2.6 2.6 0 001.6 2.4l37.4 21.6a8 8 0 004.1 1z" class="cls-2"/>
      <path d="M101.5 131.5h-3.2v13.2a2.6 2.6 0 001.5 2.4l1.8 1zM137.8 169a10.2 10.2 0 007.1 0v-15.2h-7.1z" class="cls-5"/>
      <path d="M137.2 155.5l-37.4-21.6c-2.3-1.3-2-3.6.7-5.2l36-20.8c2.7-1.5 6.7-1.7 9-.4l37.5 21.6c2.3 1.3 2 3.7-.7 5.2L146.2 155c-2.7 1.6-6.7 1.7-9 .4z" class="cls-3"/>
      <path d="M137.9 151.6l-31.4-18c-1.9-1.2-1.6-3.1.6-4.4l30.2-17.5c2.3-1.3 5.6-1.4 7.5-.3l31.4 18.1c2 1.1 1.7 3-.5 4.3l-30.3 17.5c-2.2 1.3-5.6 1.4-7.5.3z" class="cls-5"/>
      <path d="M170.7 147.8a3.3 3.3 0 01-1.5 2.6c-.8.5-1.5.1-1.5-.8a3.4 3.4 0 011.5-2.7c.8-.4 1.5 0 1.5 1zM175.6 145a3.4 3.4 0 01-1.5 2.6c-.9.5-1.6.1-1.6-.9a3.3 3.3 0 011.6-2.6c.8-.4 1.5 0 1.5.9zM180.4 142.2a3.3 3.3 0 01-1.5 2.6c-.8.5-1.5.1-1.5-.9a3.3 3.3 0 011.5-2.6c.8-.5 1.5 0 1.5.9z" class="cls-3"/>
      <path d="M184.4 123.8v-13h-28.9l-10-5.7c-2.3-1.3-6.3-1.2-9 .4l-9.3 5.4h-29V124a2.6 2.6 0 001.5 2.4l37.4 21.6c2.3 1.3 6.3 1.2 9-.4l36-20.8c1.7-.9 2.4-2 2.3-3.1z" class="cls-4"/>
      <path d="M141.4 104.2a10.3 10.3 0 00-4.8 1.3l-9.4 5.3h-29v13.3a2.6 2.6 0 001.6 2.4l37.4 21.6a8.1 8.1 0 004.1.9z" class="cls-2"/>
      <path d="M101.5 110.8h-3.2v13.3a2.6 2.6 0 001.5 2.4l1.8 1zM137.8 148.4a10.2 10.2 0 007.1-.1v-15h-7.1z" class="cls-5"/>
      <path d="M137.2 134.9l-37.4-21.6c-2.3-1.3-2-3.7.7-5.2l36-20.8a10 10 0 019-.4l37.5 21.6c2.3 1.3 2 3.6-.7 5.2l-36.1 20.8c-2.7 1.5-6.7 1.7-9 .4z" class="cls-3"/>
      <path d="M137.9 131l-31.4-18.1c-1.9-1.1-1.6-3 .6-4.3L137.3 91c2.3-1.3 5.6-1.4 7.5-.3l31.4 18c2 1.2 1.7 3-.5 4.4l-30.3 17.5a8.3 8.3 0 01-7.5.3z" class="cls-5"/>
      <path d="M153.1 132.3h17.3v.6h-17.3z" class="cls-7" transform="rotate(-30 161.8 132.5)"/>
      <path d="M170.7 127.2a3.3 3.3 0 01-1.5 2.6c-.8.5-1.5.1-1.5-.9a3.3 3.3 0 011.5-2.6c.8-.5 1.5 0 1.5.9zM175.6 124.4a3.3 3.3 0 01-1.5 2.6c-.9.5-1.6.1-1.6-.9a3.3 3.3 0 011.6-2.6c.8-.5 1.5 0 1.5.9zM180.4 121.6a3.3 3.3 0 01-1.5 2.6c-.8.5-1.5 0-1.5-.9a3.3 3.3 0 011.5-2.6c.8-.5 1.5 0 1.5.9z" class="cls-3"/>
      <path d="M184.4 103V90.1h-28.9l-10-5.8c-2.3-1.3-6.3-1.1-9 .4l-9.3 5.4h-29v13.3a2.6 2.6 0 001.5 2.4l37.4 21.6c2.3 1.3 6.3 1.1 9-.4l36-20.9c1.7-.9 2.4-2 2.3-3.1z" class="cls-4"/>
      <path d="M141.4 83.4a10.4 10.4 0 00-4.8 1.3l-9.4 5.4h-29v13.3a2.6 2.6 0 001.6 2.4l37.4 21.6a8.1 8.1 0 004.1.8z" class="cls-2"/>
      <path d="M101.5 90h-3.2v13.3a2.6 2.6 0 001.5 2.4l1.8 1zM137.8 127.6a10.2 10.2 0 007.1 0v-15.1h-7.1z" class="cls-5"/>
      <path d="M137.2 114.1L99.8 92.5c-2.3-1.3-2-3.6.7-5.2l36-20.8a10 10 0 019-.4L183 87.7c2.3 1.3 2 3.7-.7 5.2l-36.1 20.8c-2.7 1.6-6.7 1.7-9 .4z" class="cls-3"/>
      <path d="M182.3 90.3l-36.1 20.9c-2.7 1.5-6.7 1.7-9 .4L99.8 90a3.5 3.5 0 01-1.1-1c-.8 1.3-.5 2.6 1.1 3.5l37.4 21.6c2.3 1.4 6.3 1.2 9-.3l36-20.9c2.1-1.2 2.8-2.8 1.9-4.1a5 5 0 01-1.8 1.5z" class="cls-7"/>
      <path d="M170.7 106.4a3.4 3.4 0 01-1.5 2.7c-.8.4-1.5 0-1.5-1a3.3 3.3 0 011.5-2.5c.8-.5 1.5-.1 1.5.8zM155.8 114.6a3.3 3.3 0 01-1.5 2.6c-.8.5-1.5.1-1.5-.8a3.3 3.3 0 011.5-2.7c.8-.4 1.5 0 1.5 1z" class="cls-3"/>
      <path d="M155.8 136a3.3 3.3 0 01-1.5 2.6c-.8.5-1.5.1-1.5-.8a3.3 3.3 0 011.5-2.7c.8-.4 1.5 0 1.5.9z" class="cls-7"/>
      <path d="M175.6 103.6a3.3 3.3 0 01-1.5 2.6c-.9.5-1.6.1-1.6-.8a3.3 3.3 0 011.6-2.7c.8-.4 1.5 0 1.5 1zM180.4 100.8a3.4 3.4 0 01-1.5 2.6c-.8.5-1.5.1-1.5-.8a3.3 3.3 0 011.5-2.6c.8-.5 1.5-.1 1.5.8z" class="cls-3"/>
      <path d="M139.4 100.7l-17.5-10c-1-.7-1-1.8.3-2.5l17-9.8a4.7 4.7 0 014.1-.1l17.5 10c1 .7 1 1.8-.3 2.5l-16.9 9.8a4.7 4.7 0 01-4.2.1z" class="cls-2"/>
      <path d="M141 92.3l-2.3-1.4c-.2-.1-.2-.3 0-.4l2.3-1.3a.6.6 0 01.6 0l2.4 1.4c.2 0 .1.2 0 .3l-2.3 1.4a.7.7 0 01-.6 0z" class="cls-3"/>
      <path d="M122 90.6a1.6 1.6 0 01.2-.1l16.9-9.8a4.7 4.7 0 014.2-.2l17.4 10c1-.6 1-1.6 0-2.1l-17.4-10.2a4.7 4.7 0 00-4.2.2l-17 9.8c-1.1.7-1.3 1.8-.2 2.4z" class="cls-4"/>
      <path d="M135.8 117.2c0 1-.8 1.4-1.6.9a3.5 3.5 0 01-1.6-2.8c0-1 .7-1.4 1.6-.9a3.5 3.5 0 011.6 2.8z" class="cls-3"/>
      <path d="M130.8 114.3c0 1-.7 1.5-1.6 1a3.5 3.5 0 01-1.6-2.8c0-1 .8-1.4 1.6-1a3.6 3.6 0 011.6 2.8z" class="cls-5"/>
      <path d="M135.8 123.1c0 1-.8 1.5-1.6 1a3.5 3.5 0 01-1.6-2.8c0-1 .7-1.4 1.6-1a3.5 3.5 0 011.6 2.8zM130.8 120.3c0 1-.7 1.4-1.6 1a3.5 3.5 0 01-1.6-2.8c0-1 .8-1.5 1.6-1a3.6 3.6 0 011.6 2.8zM135.8 137.7c0 1-.8 1.4-1.6.9a3.5 3.5 0 01-1.6-2.8c0-1 .7-1.4 1.6-.9a3.5 3.5 0 011.6 2.8z" class="cls-3"/>
      <path d="M130.8 134.8c0 1-.7 1.5-1.6 1a3.5 3.5 0 01-1.6-2.8c0-1 .8-1.4 1.6-1a3.5 3.5 0 011.6 2.8z" class="cls-9"/>
      <path d="M135.8 143.6c0 1-.8 1.4-1.6 1a3.5 3.5 0 01-1.6-2.8c0-1 .7-1.5 1.6-1a3.5 3.5 0 011.6 2.8z" class="cls-5"/>
      <path d="M130.8 140.8c0 1-.7 1.4-1.6.9a3.5 3.5 0 01-1.6-2.8c0-1 .8-1.4 1.6-.9a3.5 3.5 0 011.6 2.8zM135.8 158.2c0 1-.8 1.4-1.6.9a3.5 3.5 0 01-1.6-2.8c0-1 .7-1.4 1.6-.9a3.5 3.5 0 011.6 2.8z" class="cls-3"/>
      <path d="M130.8 155.3c0 1-.7 1.5-1.6 1a3.5 3.5 0 01-1.6-2.8c0-1 .8-1.4 1.6-1a3.5 3.5 0 011.6 2.8z" class="cls-5"/>
      <path d="M135.8 164.1c0 1-.8 1.5-1.6 1a3.5 3.5 0 01-1.6-2.8c0-1 .7-1.4 1.6-1a3.5 3.5 0 011.6 2.8z" class="cls-9"/>
      <path d="M130.8 161.3c0 1-.7 1.4-1.6 1a3.5 3.5 0 01-1.6-2.8c0-1 .8-1.5 1.6-1a3.5 3.5 0 011.6 2.8zM135.8 178.9c0 1-.8 1.4-1.6.9a3.5 3.5 0 01-1.6-2.8c0-1 .7-1.4 1.6-.9a3.5 3.5 0 011.6 2.8z" class="cls-5"/>
      <path d="M130.8 176c0 1-.7 1.4-1.6 1a3.5 3.5 0 01-1.6-2.8c0-1 .8-1.5 1.6-1a3.5 3.5 0 011.6 2.8zM135.8 184.8c0 1-.8 1.5-1.6 1a3.5 3.5 0 01-1.6-2.8c0-1 .7-1.4 1.6-1a3.5 3.5 0 011.6 2.8z" class="cls-3"/>
      <path d="M130.8 182c0 1-.7 1.4-1.6 1a3.5 3.5 0 01-1.6-2.8c0-1 .8-1.5 1.6-1a3.5 3.5 0 011.6 2.8z" class="cls-5"/>
      <path d="M135.8 199.4c0 1-.8 1.4-1.6.9a3.5 3.5 0 01-1.6-2.8c0-1 .7-1.4 1.6-.9a3.5 3.5 0 011.6 2.8zM130.8 196.6c0 1-.7 1.4-1.6.9a3.5 3.5 0 01-1.6-2.8c0-1 .8-1.4 1.6-.9a3.5 3.5 0 011.6 2.8zM135.8 205.3c0 1-.8 1.5-1.6 1a3.5 3.5 0 01-1.6-2.8c0-1 .7-1.4 1.6-1a3.5 3.5 0 011.6 2.8z" class="cls-9"/>
      <path d="M130.8 202.5c0 1-.7 1.4-1.6 1a3.5 3.5 0 01-1.6-2.8c0-1 .8-1.5 1.6-1a3.5 3.5 0 011.6 2.8zM135.8 220.2c0 1-.8 1.4-1.6.9a3.5 3.5 0 01-1.6-2.8c0-1 .7-1.4 1.6-1a3.5 3.5 0 011.6 2.8z" class="cls-3"/>
      <path d="M130.8 217.3c0 1-.7 1.4-1.6 1a3.5 3.5 0 01-1.6-2.8c0-1 .8-1.5 1.6-1a3.5 3.5 0 011.6 2.8z" class="cls-5"/>
      <path d="M135.8 226.1c0 1-.8 1.4-1.6 1a3.5 3.5 0 01-1.6-2.8c0-1 .7-1.5 1.6-1a3.5 3.5 0 011.6 2.8zM130.8 223.3c0 1-.7 1.4-1.6.9a3.5 3.5 0 01-1.6-2.8c0-1 .8-1.4 1.6-.9a3.5 3.5 0 011.6 2.8z" class="cls-3"/>
      <path d="M272.8 261.5a.8.8 0 01-.4-.1L231 236.8a.8.8 0 01-.3-1 .8.8 0 011-.4l41.6 24.6a.8.8 0 01.3 1 .8.8 0 01-.7.5z" class="cls-5"/>
      <path d="M196.8 274.3l-29.9-17.2c-1.8-1.1-1.6-3 .5-4.2l28.9-16.6a8 8 0 017.1-.3l29.9 17.2c1.8 1 1.6 3-.5 4.2L203.9 274a8 8 0 01-7.1.3z" class="cls-1"/>
      <path d="M243.2 240v-12.8h-29l-10-5.8c-2.2-1.3-6.2-1.1-9 .4l-9.2 5.4h-29v13.2a2.6 2.6 0 001.5 2.4l37.5 21.6c2.3 1.3 6.3 1.2 9-.4l36-20.8c1.6-.9 2.3-2 2.2-3.1z" class="cls-4"/>
      <path d="M200.1 220.5a10.3 10.3 0 00-4.8 1.3l-9.3 5.4h-29v13.2a2.6 2.6 0 001.5 2.4l37.5 21.6a8 8 0 004.2.9z" class="cls-2"/>
      <path d="M160.3 227.1H157v13.3a2.6 2.6 0 001.5 2.4l1.8 1zM196.5 264.7a10.2 10.2 0 007.2-.1v-15h-7.2z" class="cls-5"/>
      <path d="M196 251.2l-37.4-21.6c-2.3-1.3-2-3.6.6-5.2l36.1-20.8c2.7-1.6 6.7-1.7 9-.4l37.4 21.6c2.3 1.3 2 3.6-.6 5.2L205 250.8c-2.7 1.5-6.8 1.7-9 .4z" class="cls-3"/>
      <path d="M196.6 247.3l-31.3-18.1c-2-1.1-1.7-3 .5-4.3l30.3-17.5c2.2-1.3 5.6-1.4 7.5-.3l31.3 18c2 1.2 1.7 3-.5 4.4L204.1 247a8.3 8.3 0 01-7.5.3z" class="cls-5"/>
      <path d="M229.4 243.5a3.3 3.3 0 01-1.5 2.6c-.8.5-1.5.1-1.5-.9a3.3 3.3 0 011.5-2.6c.9-.5 1.5 0 1.5.9zM234.3 240.7a3.3 3.3 0 01-1.5 2.6c-.8.5-1.5.1-1.5-.9a3.3 3.3 0 011.5-2.6c.8-.5 1.5 0 1.5.9zM239.2 237.9a3.3 3.3 0 01-1.5 2.6c-.9.5-1.5 0-1.5-.9a3.4 3.4 0 011.5-2.6c.8-.5 1.5 0 1.5.9z" class="cls-3"/>
      <path d="M243.2 219.5v-13h-29l-10-5.7c-2.2-1.3-6.2-1.2-9 .4l-9.2 5.3h-29v13.3a2.6 2.6 0 001.5 2.4l37.5 21.6c2.3 1.3 6.3 1.1 9-.4l36-20.8c1.6-1 2.3-2 2.2-3.1z" class="cls-4"/>
      <path d="M200.1 199.9a10.3 10.3 0 00-4.8 1.2l-9.3 5.4h-29v13.3a2.6 2.6 0 001.5 2.4l37.5 21.6a8 8 0 004.2.9z" class="cls-2"/>
      <path d="M160.3 206.5H157v13.3a2.6 2.6 0 001.5 2.4l1.8 1zM196.5 244a10.2 10.2 0 007.2 0v-15h-7.2z" class="cls-5"/>
      <path d="M196 230.6L158.6 209c-2.3-1.3-2-3.6.6-5.2l36.1-20.8c2.7-1.5 6.7-1.7 9-.4l37.4 21.6c2.3 1.3 2 3.7-.6 5.2L205 230.2c-2.7 1.5-6.8 1.7-9 .4z" class="cls-3"/>
      <path d="M196.6 226.7l-31.3-18.1c-2-1.1-1.7-3 .5-4.4l30.3-17.4c2.2-1.3 5.6-1.5 7.5-.3l31.3 18c2 1.2 1.7 3.1-.5 4.4l-30.3 17.5c-2.2 1.2-5.5 1.4-7.5.3z" class="cls-5"/>
      <path d="M229.4 222.9a3.3 3.3 0 01-1.5 2.6c-.8.5-1.5 0-1.5-.9a3.4 3.4 0 011.5-2.6c.9-.5 1.5 0 1.5.9zM234.3 220a3.4 3.4 0 01-1.5 2.7c-.8.5-1.5 0-1.5-.9a3.3 3.3 0 011.5-2.6c.8-.5 1.5 0 1.5.9zM239.2 217.3a3.3 3.3 0 01-1.5 2.6c-.9.5-1.5 0-1.5-.9a3.3 3.3 0 011.5-2.6c.8-.5 1.5-.1 1.5.9z" class="cls-3"/>
      <path d="M243.2 198.8V186h-29l-10-5.8c-2.2-1.3-6.2-1.1-9 .4l-9.2 5.3h-29v13.3a2.6 2.6 0 001.5 2.4l37.5 21.6c2.3 1.3 6.3 1.1 9-.4l36-20.9c1.6-.8 2.3-2 2.2-3z" class="cls-4"/>
      <path d="M200.1 179.3a10.3 10.3 0 00-4.8 1.2L186 186h-29v13.3a2.6 2.6 0 001.5 2.4l37.5 21.6a8 8 0 004.2.9z" class="cls-2"/>
      <path d="M160.3 185.9H157v13.3a2.6 2.6 0 001.5 2.4l1.8 1zM196.5 223.4a10.2 10.2 0 007.2 0v-15.1h-7.2z" class="cls-5"/>
      <path d="M196 210l-37.4-21.7c-2.3-1.3-2-3.6.6-5.1l36.1-20.9c2.7-1.5 6.7-1.7 9-.3l37.4 21.6c2.3 1.3 2 3.6-.6 5.1L205 209.6c-2.7 1.5-6.8 1.7-9 .3z" class="cls-3"/>
      <path d="M196.6 206l-31.3-18c-2-1.1-1.7-3 .5-4.3l30.3-17.5c2.2-1.3 5.6-1.4 7.5-.3l31.3 18c2 1.2 1.7 3.1-.5 4.4l-30.3 17.5c-2.2 1.2-5.5 1.4-7.5.3z" class="cls-5"/>
      <path d="M229.4 202.3a3.3 3.3 0 01-1.5 2.6c-.8.4-1.5 0-1.5-.9a3.3 3.3 0 011.5-2.6c.9-.5 1.5-.1 1.5.9zM234.3 199.4a3.4 3.4 0 01-1.5 2.7c-.8.4-1.5 0-1.5-1a3.3 3.3 0 011.5-2.5c.8-.5 1.5-.1 1.5.8zM239.2 196.6a3.3 3.3 0 01-1.5 2.7c-.9.4-1.5 0-1.5-1a3.3 3.3 0 011.5-2.5c.8-.5 1.5-.1 1.5.8z" class="cls-3"/>
      <path d="M243.2 178.2v-12.9h-29l-10-5.8c-2.2-1.3-6.2-1.1-9 .4l-9.2 5.4h-29v13.3a2.6 2.6 0 001.5 2.4l37.5 21.5c2.3 1.4 6.3 1.2 9-.3l36-20.9c1.6-.9 2.3-2 2.2-3z" class="cls-4"/>
      <path d="M200.1 158.7a10.4 10.4 0 00-4.8 1.2l-9.3 5.4h-29v13.3a2.6 2.6 0 001.5 2.4l37.5 21.5a8.1 8.1 0 004.2 1z" class="cls-2"/>
      <path d="M160.3 165.3H157v13.2a2.6 2.6 0 001.5 2.5l1.8 1zM196.5 202.8a10.2 10.2 0 007.2 0v-15.1h-7.2z" class="cls-5"/>
      <path d="M196 189.3l-37.4-21.6c-2.3-1.3-2-3.6.6-5.1l36.1-20.9a10 10 0 019-.4l37.4 21.6c2.3 1.4 2 3.7-.6 5.2L205 188.9c-2.7 1.6-6.8 1.7-9 .4z" class="cls-3"/>
      <path d="M196.6 185.4l-31.3-18c-2-1.2-1.7-3.1.5-4.4l30.3-17.5c2.2-1.2 5.6-1.4 7.5-.3l31.3 18.1c2 1.1 1.7 3-.5 4.3l-30.3 17.5c-2.2 1.3-5.5 1.4-7.5.3z" class="cls-5"/>
      <path d="M229.4 181.6a3.3 3.3 0 01-1.5 2.7c-.8.4-1.5 0-1.5-1a3.3 3.3 0 011.5-2.5c.9-.5 1.5-.1 1.5.8zM234.3 178.8a3.3 3.3 0 01-1.5 2.6c-.8.5-1.5.1-1.5-.8a3.3 3.3 0 011.5-2.6c.8-.5 1.5-.1 1.5.8zM239.2 176a3.4 3.4 0 01-1.5 2.6c-.9.5-1.5.1-1.5-.8a3.3 3.3 0 011.5-2.7c.8-.4 1.5 0 1.5.9z" class="cls-3"/>
      <path d="M243.2 157.6v-12.9h-29l-10-5.8c-2.2-1.3-6.2-1.1-9 .4l-9.2 5.4h-29v13.2a2.6 2.6 0 001.5 2.4L196 182c2.3 1.4 6.3 1.2 9-.3l36.1-20.9c1.6-.9 2.3-2 2.2-3z" class="cls-4"/>
      <path d="M200.1 138a10.4 10.4 0 00-4.8 1.3l-9.3 5.4h-29v13.2a2.6 2.6 0 001.5 2.4L196 182a8.1 8.1 0 004.2 1z" class="cls-2"/>
      <path d="M160.3 144.7H157v13.2a2.6 2.6 0 001.5 2.4l1.8 1zM196.5 182.2a10.2 10.2 0 007.2 0V167h-7.2z" class="cls-5"/>
      <path d="M196 168.7L158.6 147c-2.3-1.3-2-3.6.6-5.2l36.1-20.8a10 10 0 019-.4l37.4 21.6c2.3 1.3 2 3.6-.6 5.2L205 168.3c-2.7 1.5-6.8 1.7-9 .4z" class="cls-3"/>
      <path d="M196.6 164.8l-31.3-18c-2-1.2-1.7-3.1.5-4.4l30.3-17.5c2.2-1.3 5.6-1.4 7.5-.3l31.3 18c2 1.2 1.7 3.1-.5 4.4l-30.3 17.5c-2.2 1.3-5.5 1.4-7.5.3z" class="cls-5"/>
      <path d="M211.9 166.1h17.3v.6h-17.3z" class="cls-7" transform="rotate(-30 220.5 166.4)"/>
      <path d="M229.4 161a3.3 3.3 0 01-1.5 2.6c-.8.5-1.5.1-1.5-.8a3.3 3.3 0 011.5-2.7c.9-.4 1.5 0 1.5.9zM234.3 158.2a3.3 3.3 0 01-1.5 2.6c-.8.5-1.5.1-1.5-.8a3.4 3.4 0 011.5-2.7c.8-.5 1.5 0 1.5 1zM239.2 155.4a3.4 3.4 0 01-1.5 2.6c-.9.5-1.5.1-1.5-.9a3.3 3.3 0 011.5-2.6c.8-.4 1.5 0 1.5.9z" class="cls-3"/>
      <path d="M243.2 136.8V124h-29l-10-5.7c-2.2-1.4-6.2-1.2-9 .3L186 124h-29v13.3a2.6 2.6 0 001.5 2.4l37.5 21.6c2.3 1.3 6.3 1.1 9-.4l36-20.9c1.6-.8 2.3-2 2.2-3z" class="cls-4"/>
      <path d="M200.1 117.3a10.4 10.4 0 00-4.8 1.2L186 124h-29v13.3a2.6 2.6 0 001.5 2.4l37.5 21.6a8 8 0 004.2.8z" class="cls-2"/>
      <path d="M160.3 123.9H157v13.3a2.6 2.6 0 001.5 2.4l1.8 1zM196.5 161.4a10.2 10.2 0 007.2 0v-15.1h-7.2z" class="cls-5"/>
      <path d="M196 148l-37.4-21.7c-2.3-1.3-2-3.6.6-5.1l36.1-20.9c2.7-1.5 6.7-1.7 9-.4l37.4 21.6c2.3 1.4 2 3.7-.6 5.2L205 147.6c-2.7 1.5-6.8 1.7-9 .3z" class="cls-3"/>
      <path d="M241 124.2L205 145c-2.7 1.5-6.8 1.7-9 .4l-37.4-21.6a3.5 3.5 0 01-1.2-1c-.8 1.3-.4 2.6 1.2 3.5L196 148c2.3 1.4 6.3 1.2 9-.3l36-20.9c2-1.2 2.7-2.8 1.8-4.1a5 5 0 01-1.8 1.6z" class="cls-7"/>
      <path d="M229.4 140.3a3.4 3.4 0 01-1.5 2.6c-.8.4-1.5 0-1.5-1a3.3 3.3 0 011.5-2.5c.9-.5 1.5-.1 1.5.8zM214.6 148.4a3.3 3.3 0 01-1.5 2.7c-.9.4-1.6 0-1.6-1a3.3 3.3 0 011.6-2.5c.8-.5 1.5-.1 1.5.8z" class="cls-3"/>
      <path d="M214.6 169.8a3.4 3.4 0 01-1.5 2.7c-.9.4-1.6 0-1.6-1a3.3 3.3 0 011.6-2.5c.8-.5 1.5-.1 1.5.8z" class="cls-7"/>
      <path d="M234.3 137.4a3.3 3.3 0 01-1.5 2.7c-.8.4-1.5 0-1.5-1a3.3 3.3 0 011.5-2.5c.8-.5 1.5-.1 1.5.8zM239.2 134.6a3.3 3.3 0 01-1.5 2.6c-.9.5-1.5.1-1.5-.8a3.3 3.3 0 011.5-2.6c.8-.5 1.5-.1 1.5.8z" class="cls-3"/>
      <path d="M198.2 134.5l-17.5-10c-1.1-.7-1-1.8.3-2.5l16.9-9.7a4.7 4.7 0 014.2-.2l17.5 10c1 .7.9 1.8-.3 2.5l-17 9.8a4.6 4.6 0 01-4.1.1z" class="cls-2"/>
      <path d="M199.8 126l-2.4-1.3c-.1-.1-.1-.3 0-.4l2.4-1.3a.6.6 0 01.6 0l2.4 1.4v.3l-2.3 1.4a.6.6 0 01-.7 0z" class="cls-3"/>
      <path d="M180.7 124.4a1.6 1.6 0 01.3-.1l16.9-9.8a4.6 4.6 0 014.2-.2l17.4 10.1c1-.7 1-1.7 0-2.2L202.2 112a4.7 4.7 0 00-4.2.1L181 122c-1.3.7-1.4 1.8-.3 2.4z" class="cls-4"/>
      <path d="M194.5 151c0 1-.7 1.4-1.6 1a3.5 3.5 0 01-1.6-2.8c0-1 .7-1.5 1.6-1a3.5 3.5 0 011.6 2.8z" class="cls-3"/>
      <path d="M189.6 148.2c0 1-.8 1.4-1.6.9a3.5 3.5 0 01-1.6-2.8c0-1 .7-1.4 1.6-.9a3.5 3.5 0 011.6 2.8z" class="cls-5"/>
      <path d="M194.5 157c0 1-.7 1.4-1.6 1a3.5 3.5 0 01-1.6-2.8c0-1 .7-1.5 1.6-1a3.5 3.5 0 011.6 2.8z" class="cls-9"/>
      <path d="M189.6 154.1c0 1-.8 1.4-1.6 1a3.5 3.5 0 01-1.6-2.8c0-1 .7-1.5 1.6-1a3.5 3.5 0 011.6 2.8zM194.5 171.5c0 1-.7 1.4-1.6.9a3.5 3.5 0 01-1.6-2.8c0-1 .7-1.4 1.6-.9a3.5 3.5 0 011.6 2.8zM189.6 168.6c0 1-.8 1.5-1.6 1a3.5 3.5 0 01-1.6-2.8c0-1 .7-1.4 1.6-1a3.5 3.5 0 011.6 2.8z" class="cls-3"/>
      <path d="M194.5 177.4c0 1-.7 1.5-1.6 1a3.5 3.5 0 01-1.6-2.8c0-1 .7-1.4 1.6-1a3.5 3.5 0 011.6 2.8z" class="cls-5"/>
      <path d="M189.6 174.6c0 1-.8 1.4-1.6 1a3.5 3.5 0 01-1.6-2.8c0-1 .7-1.5 1.6-1a3.5 3.5 0 011.6 2.8zM194.5 192c0 1-.7 1.4-1.6 1a3.5 3.5 0 01-1.6-2.8c0-1 .7-1.5 1.6-1a3.5 3.5 0 011.6 2.8z" class="cls-3"/>
      <path d="M189.6 189.2c0 1-.8 1.4-1.6.9a3.5 3.5 0 01-1.6-2.8c0-1 .7-1.4 1.6-.9a3.5 3.5 0 011.6 2.8z" class="cls-5"/>
      <path d="M194.5 198c0 1-.7 1.4-1.6.9a3.5 3.5 0 01-1.6-2.8c0-1 .7-1.4 1.6-1a3.5 3.5 0 011.6 2.8z" class="cls-3"/>
      <path d="M189.6 195.1c0 1-.8 1.4-1.6 1a3.5 3.5 0 01-1.6-2.8c0-1 .7-1.5 1.6-1a3.5 3.5 0 011.6 2.8zM194.5 212.7c0 1-.7 1.4-1.6 1a3.5 3.5 0 01-1.6-2.8c0-1 .7-1.5 1.6-1a3.5 3.5 0 011.6 2.8z" class="cls-9"/>
      <path d="M189.6 209.9c0 1-.8 1.4-1.6.9a3.5 3.5 0 01-1.6-2.8c0-1 .7-1.4 1.6-.9a3.5 3.5 0 011.6 2.8z" class="cls-3"/>
      <path d="M194.5 218.7c0 1-.7 1.4-1.6.9a3.5 3.5 0 01-1.6-2.8c0-1 .7-1.4 1.6-.9a3.5 3.5 0 011.6 2.8z" class="cls-9"/>
      <path d="M189.6 215.8c0 1-.8 1.4-1.6 1a3.5 3.5 0 01-1.6-2.8c0-1 .7-1.4 1.6-1a3.6 3.6 0 011.6 2.8z" class="cls-5"/>
      <path d="M194.5 233.2c0 1-.7 1.4-1.6 1a3.5 3.5 0 01-1.6-2.8c0-1 .7-1.5 1.6-1a3.5 3.5 0 011.6 2.8z" class="cls-9"/>
      <path d="M189.6 230.4c0 1-.8 1.4-1.6.9a3.5 3.5 0 01-1.6-2.8c0-1 .7-1.4 1.6-.9a3.6 3.6 0 011.6 2.8z" class="cls-3"/>
      <path d="M194.5 239.2c0 1-.7 1.4-1.6.9a3.5 3.5 0 01-1.6-2.8c0-1 .7-1.4 1.6-.9a3.5 3.5 0 011.6 2.8z" class="cls-5"/>
      <path d="M189.6 236.3c0 1-.8 1.5-1.6 1a3.5 3.5 0 01-1.6-2.8c0-1 .7-1.4 1.6-1a3.6 3.6 0 011.6 2.8z" class="cls-9"/>
      <path d="M194.5 254c0 1-.7 1.4-1.6 1a3.5 3.5 0 01-1.6-2.8c0-1 .7-1.5 1.6-1a3.5 3.5 0 011.6 2.8z" class="cls-3"/>
      <path d="M189.6 251.1c0 1-.8 1.5-1.6 1a3.5 3.5 0 01-1.6-2.8c0-1 .7-1.4 1.6-1a3.5 3.5 0 011.6 2.8z" class="cls-5"/>
      <path d="M194.5 260c0 1-.7 1.4-1.6.9a3.5 3.5 0 01-1.6-2.8c0-1 .7-1.4 1.6-1a3.5 3.5 0 011.6 2.8z" class="cls-3"/>
      <path d="M189.6 257.1c0 1-.8 1.4-1.6 1a3.5 3.5 0 01-1.6-2.8c0-1 .7-1.5 1.6-1a3.5 3.5 0 011.6 2.8z" class="cls-9"/>
      <path d="M374.4 158.2h5.8v12.5h-5.8z" class="cls-5" transform="rotate(129.2 377.3 164.5)"/>
      <path d="M381.8 170.8a4.5 4.5 0 002.6-3.2c.2-1.3-.6-2-1.8-1.5a4.5 4.5 0 00-2.6 3.2c-.2 1.3.6 2 1.8 1.5z" class="cls-5"/>
      <path d="M364.5 151.5h9.4v12.8h-9.4z" class="cls-5" transform="rotate(129.2 369.2 157.9)"/>
      <path d="M376 159.6l3.2 2.7a7.5 7.5 0 01-3.7 4.5l-3.3-2.7a7.5 7.5 0 013.7-4.5z" class="cls-4"/>
      <path d="M373.6 165.7a7.3 7.3 0 004.2-5.1c.3-2.1-1-3.2-3-2.5a7.4 7.4 0 00-4.2 5.2c-.4 2 1 3.2 3 2.4zM363.6 157.6a7.3 7.3 0 004.2-5.1c.4-2.1-1-3.2-3-2.5a7.4 7.4 0 00-4.2 5.2c-.3 2 1 3.2 3 2.4z" class="cls-5"/>
      <path d="M364 156a4.2 4.2 0 002.3-3c.2-1.1-.6-1.7-1.7-1.3a4.2 4.2 0 00-2.4 3c-.2 1 .6 1.7 1.7 1.3zM381.9 167.1c.4.4.9.2 1-.4a2.1 2.1 0 00-.7-1.8c-.5-.4-1-.2-1 .4a2.2 2.2 0 00.7 1.8z" class="cls-3"/>
      <path d="M283 266a9.9 9.9 0 01-5-1.4l-7-4a.8.8 0 11.8-1.4l6.9 4a8.3 8.3 0 0012.5-7.6l-.1-2c-2.4-34-7-97.2 19.7-104a206.3 206.3 0 0020-6.3c13.7-5 14.6-4.6 33.4 9.6a.8.8 0 11-.9 1.2c-18.7-14.1-19-14-32-9.3a209.7 209.7 0 01-20.2 6.2c-25.3 6.5-21 68.9-18.5 102.4l.1 2a9.9 9.9 0 01-9.7 10.7z" class="cls-5"/>
      <ellipse cx="335.2" cy="264.1" class="cls-1" rx="25.2" ry="14.6"/>
      <path d="M347.3 257.9a3.9 3.9 0 012.1 3.9 6.6 6.6 0 01-.3 1.8 3.2 3.2 0 01-4.3 1.4c-2.3-1-7.6-5.9-7.8-9.1-.3-6 6.5.4 10.3 2zM333.4 267.8s.5 3.4.3 4a4.5 4.5 0 01-4.4 1.8c-2.4-.3-9.4-2.7-11-7.4-2.4-7 13.5.6 13.5.6z" class="cls-2"/>
      <path d="M326.5 212.5l-.5 54a3.8 3.8 0 003 3.8h.6a3.4 3.4 0 003.2-1.3 4 4 0 00.7-2.2l.7-23 3.5-20.6 4.7 36.5a3.1 3.1 0 001.3 2.4 3.6 3.6 0 002.2.6 4 4 0 002.9-1.4 2.9 2.9 0 00.7-2l-2-22-.6-28z" class="cls-3"/>
      <path d="M333.5 164.2l.9 5a2.2 2.2 0 01-1.9 2c-1.8.6-2.4-.6-2.4-.6l-.9-5.6z" class="cls-6"/>
      <path d="M323.5 164.4c3.2 3.1 8 3.4 10.7.6s2.5-7.6-.7-10.7-7.9-3.4-10.6-.6-2.5 7.6.6 10.7z" class="cls-6"/>
      <path d="M333.3 169.2c.1 0 8-5 10.8.2 4.7 8.6 4.5 36.3 3 39.8a16.8 16.8 0 01-7.2 7.2 14.5 14.5 0 01-7 2c-2.5 0-7.2-2.2-7-5.4.7-14.7-.6-27-1.8-39 0 0 1.6-1.7 9.2-4.8z" class="cls-5"/>
      <path d="M337.6 223.2l4.8 36.4a3.1 3.1 0 001.3 2.4 3.8 3.8 0 00.4.2c-1-.7-3.9-31.3-4.4-34.7s-2-4.3-2-4.3z" class="cls-4"/>
      <path d="M308.3 170.9l-4.2-14 2.2-.9 5 10.9-3 4zM351.1 159.9l-3.2-14.5h-2.5l1 12.1 4.7 2.4z" class="cls-6"/>
      <path d="M324.2 174s-7.6 1.5-12.5-7.4a1.2 1.2 0 00-2-.2c-.8 1.1-1.8 3-1.3 5 2.4 8.7 15.2 10.6 17.5 15.6s-1.7-13-1.7-13zM338.3 167.4s6 .5 6.9-4.7a40.5 40.5 0 00.6-5.3 1 1 0 011.2-1c1.4.2 3.7.6 4 1.6.4 1.5 1.3 8.6-4.7 19.5-4 7-8-10-8-10z" class="cls-5"/>
      <path d="M348 145.4v-1.6a3.4 3.4 0 00-.6-1.7l-1.6-2.7-.5-.6a1.3 1.3 0 00-1.6-.2l-.4.2a1.6 1.6 0 00-.8 1.4l1 2.4-1.2-.2a.4.4 0 00-.5.3.4.4 0 00.3.4l1.8.7 1.6 2.3zM304 157l-.5-1.6a3.4 3.4 0 01-.1-1.7l.6-3.2.3-.6a1.3 1.3 0 011.4-.9l.5.1a1.6 1.6 0 011.2 1.1v2.6l1-.6a.4.4 0 01.5.1.4.4 0 010 .5l-1.5 1.3-.9 3z" class="cls-6"/>
      <path d="M327.8 184.5c.6 3.1-1.3 27.8 5 33.9-2.4 0-7-2.2-7-5.4a195.8 195.8 0 00-.5-27c-2.5-3.2-9.4-5.3-13.7-9.4.4 0 15.5 4.7 16.2 7.9z" class="cls-4"/>
      <path d="M336.1 167.8l-1.1-1a8.8 8.8 0 01-3.2 2 16.4 16.4 0 01-2.6.6l-.7 2s5.7-.5 7.6-3.6z" class="cls-7"/>
      <path d="M328.1 162.1a1 1 0 01-.8 0c-.5-.2-1.2-2-2.2-1.9-1.5.2-3.7 3.4-6.4-1-1.4-2.3-.6-3.5-1.3-4.8 0 0 .3.7 6.2-3s10.7.9 12.2 3.4 2.5 7.4-1.4 10.2c-.6.4-4.8-.4-4.9-.7s1-1 .4-1.8a1.3 1.3 0 00-1.8-.4z" class="cls-2"/>
    </g>
  </g>
</svg>
