<svg version="1.1" id="el_IF0nzLShN" xmlns="http://www.w3.org/2000/svg" xmlns:xlink="http://www.w3.org/1999/xlink" x="0px" y="0px" viewBox="0 0 600 483" enable-background="new 0 0 612 483" xml:space="preserve"><style>@-webkit-keyframes kf_el_hGtjpw4IMG_an_FrjOTL9rt{0%{-webkit-transform: translate(475.4180450439453px, 322.0491180419922px) rotate(4500deg) translate(-475.4180450439453px, -322.0491180419922px);transform: translate(475.4180450439453px, 322.0491180419922px) rotate(4500deg) translate(-475.4180450439453px, -322.0491180419922px);}98.89%{-webkit-transform: translate(475.4180450439453px, 322.0491180419922px) rotate(3960deg) translate(-475.4180450439453px, -322.0491180419922px);transform: translate(475.4180450439453px, 322.0491180419922px) rotate(3960deg) translate(-475.4180450439453px, -322.0491180419922px);}100%{-webkit-transform: translate(475.4180450439453px, 322.0491180419922px) rotate(3960deg) translate(-475.4180450439453px, -322.0491180419922px);transform: translate(475.4180450439453px, 322.0491180419922px) rotate(3960deg) translate(-475.4180450439453px, -322.0491180419922px);}}@keyframes kf_el_hGtjpw4IMG_an_FrjOTL9rt{0%{-webkit-transform: translate(475.4180450439453px, 322.0491180419922px) rotate(4500deg) translate(-475.4180450439453px, -322.0491180419922px);transform: translate(475.4180450439453px, 322.0491180419922px) rotate(4500deg) translate(-475.4180450439453px, -322.0491180419922px);}98.89%{-webkit-transform: translate(475.4180450439453px, 322.0491180419922px) rotate(3960deg) translate(-475.4180450439453px, -322.0491180419922px);transform: translate(475.4180450439453px, 322.0491180419922px) rotate(3960deg) translate(-475.4180450439453px, -322.0491180419922px);}100%{-webkit-transform: translate(475.4180450439453px, 322.0491180419922px) rotate(3960deg) translate(-475.4180450439453px, -322.0491180419922px);transform: translate(475.4180450439453px, 322.0491180419922px) rotate(3960deg) translate(-475.4180450439453px, -322.0491180419922px);}}#el_IF0nzLShN *{-webkit-animation-duration: 6s;animation-duration: 6s;-webkit-animation-iteration-count: infinite;animation-iteration-count: infinite;-webkit-animation-timing-function: cubic-bezier(0, 0, 1, 1);animation-timing-function: cubic-bezier(0, 0, 1, 1);}#el_zb7o8um9Fp{fill: #ED7923;}#el_RPtF5zI0xh{fill: #ED7923;}#el_tcT9t3Wfeu{fill: #ED7923;}#el_hGtjpw4IMG{fill: #807467;}#el_m7xEhmvk16{fill: #FFF9F5;}#el_iNFrPBjcYw{fill: #FDF4EB;}#el_WhoKgysCSQ{fill: #FFF7F0;}#el_vDX0hmnu9z{fill: #FDF7F0;}#el_EY0XENGjM0{fill: #FFFFFF;}#el_hGtjpw4IMG_an_FrjOTL9rt{-webkit-animation-fill-mode: backwards;animation-fill-mode: backwards;-webkit-transform: translate(475.4180450439453px, 322.0491180419922px) rotate(4500deg) translate(-475.4180450439453px, -322.0491180419922px);transform: translate(475.4180450439453px, 322.0491180419922px) rotate(4500deg) translate(-475.4180450439453px, -322.0491180419922px);-webkit-animation-name: kf_el_hGtjpw4IMG_an_FrjOTL9rt;animation-name: kf_el_hGtjpw4IMG_an_FrjOTL9rt;-webkit-animation-timing-function: cubic-bezier(0.42, 0, 1, 1);animation-timing-function: cubic-bezier(0.42, 0, 1, 1);}</style>
<path fill-rule="evenodd" clip-rule="evenodd" d="M51.052,14.623c74.285-9.62,148.905-2.788,223.358-4.361&#10;&#9;c47.862-1.01,95.763-0.233,143.649-0.172c31.461,0.038,63.196-2.564,93.506,9.219c27.166,20.677,36.917,49.196,27.044,79.097&#10;&#9;c-9.294,28.175-35.958,47.233-69.738,47.628c-56.104,0.657-112.22,0.219-168.336,0.225c-70.749,0-141.502,0.527-212.244-0.235&#10;&#9;c-47.849-0.514-78.292-31.926-75.239-76.46C14.794,44.162,27.206,25.204,51.052,14.623z" id="el_zb7o8um9Fp"/>
<path fill-rule="evenodd" clip-rule="evenodd" d="M329.094,331.656c-11.674,35.927-0.463,75.212,26.23,98.673&#10;&#9;c7.628,6.701,17.13,12.928,26.212,11.149c23.599-4.614,32.246,8.38,37.805,27.157c-1.106,3.94-4.215,4.214-7.541,4.207&#10;&#9;c-107.999-0.037-215.997,0.053-323.993-0.163c-31.201-0.06-55.068-14.088-68.792-42.03c-11.591-23.589-9.029-47.359,6.241-69.094&#10;&#9;c12.914-18.373,30.896-29.499,53.285-29.661C161.294,331.295,244.055,331.656,329.094,331.656z" id="el_RPtF5zI0xh"/>
<path fill-rule="evenodd" clip-rule="evenodd" d="M428.86,171.268c-12.56,21.189-23.982,39.372-55.033,39.068&#10;&#9;c-24.18-0.233-57.046,54.874-51.842,82.277c2.947,15.529-2.438,15.926-14.005,15.883c-74.752-0.271-149.512,0.345-224.259-0.473&#10;&#9;c-42.242-0.463-71.194-30.31-70.903-70.46c0.283-38.872,28.912-67.896,70.453-68.185c113.748-0.797,227.503-0.489,341.257-0.506&#10;&#9;C425.852,168.871,427.176,170.299,428.86,171.268z" id="el_tcT9t3Wfeu"/>
<g id="el_hGtjpw4IMG_an_FrjOTL9rt" data-animator-group="true" data-animator-type="1"><path fill-rule="evenodd" clip-rule="evenodd" d="M567.878,410.259c-31.507-2.074-48.315,6.606-58.467,31.276&#10;&#9;c-8.062,19.592-28.129,11.202-43.491,12.498c-13.031,1.103-23.223-2.233-29.143-16.295c-8.424-20.002-23.425-31.418-46.666-26.934&#10;&#9;c-17.138,3.309-23.095-9.203-28.57-20.935c-6.396-13.709-22.366-26.302-7.131-43.779c14.128-16.208,14.274-33.14,0.438-49.223&#10;&#9;c-16.166-18.78,0.899-31.432,7.707-45.696c5.591-11.723,11.575-22.836,29.145-19.496c21.449,4.082,37.604-7.131,44.742-26.279&#10;&#9;c7.98-21.392,24.456-15.165,38.706-15.28c13.531-0.106,28.961-5.357,36.311,15.02c6.974,19.357,23.462,29.782,44.717,26.536&#10;&#9;c11.597-1.77,18.973,1.74,24.72,10.592c6.63,10.211,12.817,20.719,19.02,31.201c4.972,8.414,1.901,14.668-4.399,21.547&#10;&#9;c-15.86,17.326-15.674,35.128-0.126,52.079c4.006,4.365,9.313,8.914,6.752,14.521c-7.731,16.844-15.797,33.775-29.234,47.035&#10;&#9;C570.437,411.081,565.408,410.931,567.878,410.259z" id="el_hGtjpw4IMG"/></g>
<path fill-rule="evenodd" clip-rule="evenodd" d="M125.986,93.282c-9.688,0-19.389,0.319-29.061-0.09&#10;&#9;c-10.434-0.439-16.704-6.53-17.126-16.745c-0.427-10.326,5.852-17.55,15.863-17.962c21.749-0.891,43.588-0.924,65.328,0.067&#10;&#9;c9.71,0.444,16.845,7.676,16.396,17.723c-0.438,9.805-7.31,16.24-17.501,16.788c-11.271,0.6-22.597,0.134-33.897,0.134&#10;&#9;C125.987,93.224,125.986,93.253,125.986,93.282z" id="el_m7xEhmvk16"/>
<path fill-rule="evenodd" clip-rule="evenodd" d="M442.049,52.88c13.089,2.497,23.146,10.158,22.445,23.737&#10;&#9;c-0.68,13.17-10.105,22.032-24.447,21.488c-13.428-0.51-21.138-9.796-21.211-21.959C418.74,62.599,427.575,54.333,442.049,52.88z" id="el_iNFrPBjcYw"/>
<path fill-rule="evenodd" clip-rule="evenodd" d="M127.865,419.344c-9.731-0.035-19.476,0.3-29.188-0.125&#10;&#9;c-11.172-0.484-18.737-6.103-18.937-17.833c-0.179-10.556,6.962-17.191,16.602-17.701c21.002-1.121,42.128-1.311,63.132-0.341&#10;&#9;c10.623,0.492,18.951,7.758,18.007,19.11c-0.913,10.973-9.31,16.594-20.424,16.868C147.33,419.562,137.598,419.371,127.865,419.344z&#10;&#9;" id="el_WhoKgysCSQ"/>
<path fill-rule="evenodd" clip-rule="evenodd" d="M130.094,220.488c9.741-0.015,19.503-0.414,29.217,0.096&#10;&#9;c10.262,0.537,17.426,7.007,18.136,16.557c0.826,11.143-6.917,18.82-17.792,19.342c-21.056,1.006-42.218,0.935-63.282,0.047&#10;&#9;c-9.928-0.419-16.59-7.402-16.609-17.717c-0.021-11.717,7.55-17.584,18.673-18.19C108.961,220.05,119.538,220.502,130.094,220.488z" id="el_vDX0hmnu9z"/>
<path fill-rule="evenodd" clip-rule="evenodd" d="M421.191,321.588c-0.126-30.435,23.26-53.937,53.375-53.653&#10;&#9;c28.761,0.277,53.013,23.701,53.606,51.779c0.604,28.67-24.388,54.89-53.044,55.657&#10;&#9;C446.223,376.143,421.314,351.304,421.191,321.588z" id="el_EY0XENGjM0"/>
</svg>